<?xml version="1.0" encoding="UTF-8"?>
<svg xmlns="http://www.w3.org/2000/svg" width="240" height="32" viewBox="0 0 240 32" fill="none">
  <path d="M3.90234 30.8902V0H26.3046V5.31397H10.2467V12.7449H23.8543V18.1021H10.2467V30.8902H3.90234Z" fill="white"></path>
  <path d="M45.6365 28.2116C43.4487 30.4293 40.6339 31.5382 37.1919 31.5382C33.7499 31.5382 30.935 30.4293 28.7473 28.2116C26.5596 25.965 25.4657 23.1712 25.4657 19.8302C25.4657 16.4892 26.5596 13.7098 28.7473 11.492C30.935 9.24545 33.7499 8.12217 37.1919 8.12217C40.6339 8.12217 43.4487 9.24545 45.6365 11.492C47.8242 13.7098 48.918 16.4892 48.918 19.8302C48.918 23.1712 47.8242 25.965 45.6365 28.2116ZM37.1919 27.0451C38.9712 27.0451 40.3568 26.397 41.3485 25.101C42.3695 23.7761 42.8799 22.0191 42.8799 19.8302C42.8799 17.6412 42.3695 15.8843 41.3485 14.5594C40.3568 13.2345 38.9712 12.5721 37.1919 12.5721C35.3834 12.5721 33.9832 13.2345 32.9915 14.5594C31.9997 15.8555 31.5038 17.6124 31.5038 19.8302C31.5038 22.0191 31.9997 23.7761 32.9915 25.101C33.9832 26.397 35.3834 27.0451 37.1919 27.0451Z" fill="white"></path>
  <path d="M56.5409 8.72701V12.2697H56.6721C57.3722 10.9736 57.7601 10.3757 58.6061 9.77082C59.452 9.13718 60.5906 8.6406 61.9136 8.6406C62.5262 8.6406 63.5853 8.6406 63.5853 8.6406V12.6153H63.454C61.4726 12.6153 59.7909 13.413 58.3856 14.9962C56.9961 16.5615 56.7596 17.814 56.7596 20.0894V30.8902H50.809V8.72701H56.5409Z" fill="white"></path>
  <path d="M64.1746 12.6153V8.72701H67.2812V1.81453H73.1005V8.72701H76.9509V12.6153H73.1005V24.3665C73.1005 25.8354 73.8443 26.5699 75.332 26.5699L77.0822 26.5267V30.847C76.1779 30.9046 74.9382 30.9334 73.363 30.9334C71.642 30.9334 70.1981 30.5301 69.0313 29.7237C67.8646 28.8884 67.2812 27.5203 67.2812 25.6194V12.6153H64.1746Z" fill="white"></path>
  <path d="M89.4711 31.5382C85.8541 31.5382 83.0101 30.4437 80.939 28.2548C78.868 26.037 77.8325 23.2144 77.8325 19.787C77.8325 16.4748 78.868 13.7098 80.939 11.492C83.0101 9.24545 85.6645 8.12217 88.9023 8.12217C92.4318 8.12217 95.1592 9.33185 97.0844 11.7512C99.0096 14.1706 99.9722 17.4108 99.9722 21.4719H83.6955C83.9289 23.2288 84.5269 24.5969 85.4895 25.5762C86.4521 26.5267 87.7647 27.0019 89.4274 27.0019C91.6151 27.0019 93.059 25.533 93.759 23.7185H99.6221C99.1846 25.7922 98.0761 28.082 96.2968 29.4645C94.5174 30.847 92.2422 31.5382 89.4711 31.5382ZM88.9898 12.6585C86.102 12.6585 84.3664 14.2426 83.7831 17.4108H93.759C93.6715 15.9995 93.1902 14.8618 92.3151 13.9978C91.4401 13.1049 90.3316 12.6585 88.9898 12.6585Z" fill="white"></path>
  <path d="M110.952 31.5382C107.743 31.5382 105.235 30.847 103.426 29.4645C101.618 28.0532 100.626 26.1378 100.451 23.7185H105.964C106.343 26.1666 107.977 27.3907 110.865 27.3907C112.177 27.3907 113.184 27.1603 113.884 26.6995C114.613 26.2386 114.978 25.6194 114.978 24.8417C114.978 24.5537 114.919 24.2945 114.802 24.0641C114.715 23.8337 114.54 23.6321 114.277 23.4592C114.044 23.2576 113.825 23.0992 113.621 22.984C113.446 22.8688 113.125 22.7536 112.659 22.6384C112.192 22.5232 111.827 22.4368 111.565 22.3792C111.331 22.3216 110.908 22.2496 110.296 22.1632C109.712 22.0479 109.304 21.9615 109.071 21.9039C107.846 21.6735 106.839 21.4431 106.052 21.2127C105.293 20.9535 104.491 20.5934 103.645 20.1326C102.799 19.643 102.157 18.9949 101.72 18.1885C101.312 17.3532 101.107 16.3595 101.107 15.2075C101.107 12.9033 101.953 11.1464 103.645 9.9367C105.366 8.72701 107.568 8.12217 110.252 8.12217C113.14 8.12217 115.4 8.78461 117.034 10.1095C118.697 11.4056 119.645 13.1913 119.878 15.4667H114.496C114.263 13.3065 112.819 12.2265 110.165 12.2265C108.969 12.2265 108.021 12.4425 107.32 12.8745C106.65 13.3065 106.314 13.9114 106.314 14.689C106.314 14.9482 106.358 15.1931 106.445 15.4235C106.562 15.6251 106.737 15.8123 106.97 15.9851C107.233 16.1291 107.481 16.2587 107.714 16.3739C107.948 16.4604 108.283 16.5612 108.721 16.6764C109.158 16.7628 109.537 16.8492 109.858 16.9356C110.179 16.9932 110.617 17.0796 111.171 17.1948C111.725 17.2812 112.163 17.3532 112.484 17.4108C113.417 17.6124 114.175 17.7996 114.759 17.9725C115.371 18.1165 116.071 18.3757 116.859 18.7501C117.647 19.0957 118.259 19.499 118.697 19.9598C119.163 20.3918 119.557 20.9967 119.878 21.7743C120.228 22.5232 120.403 23.4016 120.403 24.4097C120.403 26.5987 119.528 28.3412 117.778 29.6373C116.057 30.9046 113.782 31.5382 110.952 31.5382Z" fill="white"></path>
  <path d="M123.185 30.8902V24.6257H129.573V30.8902H123.185Z" fill="white"></path>
  <path d="M135.855 30.8902L125.311 0H131.961L137.474 17.8861L138.831 22.8112H138.918C139.414 20.8527 139.866 19.2109 140.275 17.8861L145.744 0H152.176L141.631 30.8902H135.855Z" fill="white"></path>
  <path d="M153.321 30.8902V8.72701H159.271V30.8902H153.321ZM153.321 5.27077V0H159.271V5.27077H153.321Z" fill="white"></path>
  <path d="M171.331 31.5382C168.123 31.5382 165.614 30.847 163.806 29.4645C161.997 28.0532 161.005 26.1378 160.83 23.7185H166.343C166.723 26.1666 168.356 27.3907 171.244 27.3907C172.557 27.3907 173.563 27.1603 174.263 26.6995C174.992 26.2386 175.357 25.6194 175.357 24.8417C175.357 24.5537 175.298 24.2945 175.182 24.0641C175.094 23.8337 174.919 23.6321 174.657 23.4592C174.423 23.2576 174.205 23.0992 174 22.984C173.825 22.8688 173.505 22.7536 173.038 22.6384C172.571 22.5232 172.206 22.4368 171.944 22.3792C171.711 22.3216 171.288 22.2496 170.675 22.1632C170.092 22.0479 169.683 21.9615 169.45 21.9039C168.225 21.6735 167.218 21.4431 166.431 21.2127C165.672 20.9535 164.87 20.5934 164.024 20.1326C163.178 19.643 162.537 18.9949 162.099 18.1885C161.691 17.3532 161.487 16.3595 161.487 15.2075C161.487 12.9033 162.333 11.1464 164.024 9.9367C165.745 8.72701 167.948 8.12217 170.631 8.12217C173.519 8.12217 175.78 8.78461 177.413 10.1095C179.076 11.4056 180.024 13.1913 180.257 15.4667H174.875C174.642 13.3065 173.198 12.2265 170.544 12.2265C169.348 12.2265 168.4 12.4425 167.7 12.8745C167.029 13.3065 166.693 13.9114 166.693 14.689C166.693 14.9482 166.737 15.1931 166.825 15.4235C166.941 15.6251 167.116 15.8123 167.35 15.9851C167.612 16.1291 167.86 16.2587 168.094 16.3739C168.327 16.4604 168.662 16.5612 169.1 16.6764C169.537 16.7628 169.917 16.8492 170.238 16.9356C170.558 16.9932 170.996 17.0796 171.55 17.1948C172.104 17.2812 172.542 17.3532 172.863 17.4108C173.796 17.6124 174.555 17.7996 175.138 17.9725C175.751 18.1165 176.451 18.3757 177.238 18.7501C178.026 19.0957 178.638 19.499 179.076 19.9598C179.543 20.3918 179.936 20.9967 180.257 21.7743C180.607 22.5232 180.782 23.4016 180.782 24.4097C180.782 26.5987 179.907 28.3412 178.157 29.6373C176.436 30.9046 174.161 31.5382 171.331 31.5382Z" fill="white"></path>
  <path d="M182.592 30.8902V8.72701H188.542V30.8902H182.592ZM182.592 5.27077V0H188.542V5.27077H182.592Z" fill="white"></path>
  <path d="M210.578 28.2116C208.391 30.4293 205.576 31.5382 202.134 31.5382C198.692 31.5382 195.877 30.4293 193.689 28.2116C191.501 25.965 190.408 23.1712 190.408 19.8302C190.408 16.4892 191.501 13.7098 193.689 11.492C195.877 9.24545 198.692 8.12217 202.134 8.12217C205.576 8.12217 208.391 9.24545 210.578 11.492C212.766 13.7098 213.86 16.4892 213.86 19.8302C213.86 23.1712 212.766 25.965 210.578 28.2116ZM202.134 27.0451C203.913 27.0451 205.299 26.397 206.29 25.101C207.311 23.7761 207.822 22.0191 207.822 19.8302C207.822 17.6412 207.311 15.8843 206.29 14.5594C205.299 13.2345 203.913 12.5721 202.134 12.5721C200.325 12.5721 198.925 13.2345 197.933 14.5594C196.942 15.8555 196.446 17.6124 196.446 19.8302C196.446 22.0191 196.942 23.7761 197.933 25.101C198.925 26.397 200.325 27.0451 202.134 27.0451Z" fill="white"></path>
  <path d="M221.57 8.72701V11.7512H221.702C223.247 9.33185 225.464 8.12217 228.352 8.12217C230.657 8.12217 232.523 8.89982 233.953 10.4551C235.382 11.9816 236.097 13.969 236.097 16.4171V30.8902H230.146V17.2812C230.146 16.0715 229.796 15.0923 229.096 14.3434C228.425 13.5946 227.477 13.2201 226.252 13.2201C224.939 13.2201 223.845 13.6954 222.97 14.6458C222.124 15.5963 221.702 16.8204 221.702 18.3181V30.8902H215.751V8.72701H221.57Z" fill="white"></path>
</svg>
