<svg xmlns="http://www.w3.org/2000/svg" width="299" height="296" viewBox="0 0 299 296" fill="none"
                        class="svg__render inactive svg__render-desctope">
                        <g clip-path="url(#clip0_868_1062)">
                            <g class="stage-1 rendering-project__nav-item count-1">
                                <path
                                    d="M172.269 46.6229L176.136 32.5674L181.249 33.9729C183.307 34.5411 184.683 35.6015 185.382 37.1628C186.08 38.724 186.131 40.5883 185.533 42.764C184.94 44.927 183.926 46.4798 182.495 47.4267C181.064 48.3735 179.313 48.5587 177.243 47.9906L172.269 46.6229ZM174.466 45.5582L177.609 46.4251C180.689 47.271 182.726 45.8865 183.724 42.2716C184.742 38.5768 183.757 36.3169 180.765 35.4963L177.483 34.5915L174.466 45.5624V45.5582Z"
                                    fill="black" />
                                <path
                                    d="M185.125 50.456L188.748 40.5582L190.301 41.1263L186.678 51.0241L185.125 50.456ZM189.434 38.6814L190.137 36.7666L191.69 37.3347L190.987 39.2495L189.434 38.6814Z"
                                    fill="black" />
                                <path
                                    d="M192.119 53.5791C190.798 52.9983 189.905 52.2577 189.438 51.3445C188.971 50.4355 188.938 49.4129 189.346 48.2851L190.894 48.9668C190.44 50.4734 191.046 51.5928 192.717 52.325C193.474 52.6575 194.101 52.7585 194.598 52.628C195.094 52.4975 195.444 52.1946 195.654 51.7232C195.877 51.214 195.86 50.768 195.595 50.385C195.334 50.0021 194.766 49.5013 193.895 48.8827C193.533 48.6218 193.251 48.4113 193.045 48.2556C192.839 48.0999 192.599 47.8979 192.321 47.6497C192.043 47.4014 191.845 47.1741 191.719 46.9637C191.597 46.7533 191.484 46.5134 191.378 46.2441C191.273 45.9748 191.24 45.6844 191.282 45.3772C191.319 45.07 191.412 44.746 191.564 44.4093C191.925 43.5887 192.51 43.0753 193.323 42.8649C194.135 42.6587 195.094 42.7975 196.201 43.2815C198.49 44.2873 199.311 45.8485 198.663 47.9695L197.114 47.2877C197.316 46.6186 197.304 46.0589 197.072 45.6086C196.841 45.1584 196.361 44.7754 195.641 44.4556C194.981 44.1652 194.438 44.0811 194.009 44.1947C193.579 44.3125 193.276 44.5734 193.095 44.9858C192.889 45.4572 192.927 45.8738 193.217 46.2315C193.508 46.5892 194.097 47.0815 194.993 47.7128C195.536 48.0999 195.957 48.4198 196.252 48.6765C196.546 48.9332 196.832 49.253 197.11 49.6317C197.388 50.0147 197.535 50.4229 197.552 50.8605C197.569 51.2982 197.459 51.7864 197.224 52.3208C196.807 53.2677 196.142 53.84 195.225 54.0378C194.307 54.2356 193.276 54.0841 192.132 53.5833L192.119 53.5791Z"
                                    fill="black" />
                                <path
                                    d="M201.15 58.0735C199.808 57.3244 198.987 56.2597 198.692 54.8836C198.394 53.5033 198.629 52.1272 199.399 50.7469C200.17 49.3666 201.217 48.445 202.547 47.9737C203.877 47.5023 205.211 47.637 206.553 48.3861C207.635 48.9879 208.359 49.7706 208.725 50.7301C209.091 51.6895 209.083 52.7079 208.7 53.7852L207.239 52.9689C207.483 52.2787 207.492 51.639 207.26 51.0457C207.033 50.4523 206.574 49.9642 205.884 49.577C204.933 49.0468 204.007 48.9836 203.111 49.3834C202.211 49.7832 201.466 50.5112 200.876 51.5675C200.287 52.6238 200.06 53.638 200.195 54.6101C200.329 55.5822 200.872 56.3312 201.823 56.8615C202.56 57.2739 203.258 57.4001 203.919 57.2486C204.58 57.0971 205.144 56.6721 205.607 55.982L207.033 56.7773C206.322 57.8294 205.451 58.469 204.424 58.6963C203.393 58.9235 202.303 58.7173 201.154 58.0735H201.15Z"
                                    fill="black" />
                                <path
                                    d="M213.728 64.2971C212.365 64.638 211.052 64.3687 209.79 63.4934C208.527 62.6139 207.82 61.4734 207.66 60.0721C207.5 58.6707 207.875 57.3199 208.775 56.0279C209.676 54.7318 210.812 53.9196 212.18 53.5788C213.552 53.2421 214.865 53.5114 216.127 54.3867C217.385 55.2663 218.092 56.4025 218.248 57.7996C218.4 59.1968 218.025 60.5434 217.125 61.8395C216.224 63.1315 215.092 63.9521 213.724 64.2929L213.728 64.2971ZM209.188 59.9542C209.226 60.9348 209.693 61.7343 210.585 62.3571C211.477 62.98 212.386 63.1357 213.312 62.8285C214.238 62.5213 215.046 61.869 215.74 60.8801C216.439 59.8785 216.771 58.8854 216.729 57.9048C216.691 56.9243 216.228 56.1289 215.349 55.5145C214.457 54.8917 213.543 54.736 212.605 55.0474C211.671 55.3546 210.854 56.0069 210.164 57.0001C209.474 57.9932 209.146 58.9779 209.184 59.9584L209.188 59.9542Z"
                                    fill="black" />
                                <path
                                    d="M216.969 68.5859L220.942 58.1494L222.297 59.2941L219.654 65.8126L218.753 67.9588L218.783 67.9841C219.54 67.4833 220.197 67.0667 220.744 66.73L226.753 63.0478L228.062 64.1504L218.37 69.7642L216.969 68.5817V68.5859Z"
                                    fill="black" />
                                <path
                                    d="M224.695 76.0593C223.597 74.9483 223.096 73.6942 223.201 72.3013C223.306 70.9084 223.921 69.6543 225.053 68.5349C226.164 67.4366 227.426 66.839 228.84 66.7506C230.254 66.6622 231.475 67.1378 232.51 68.1814C233.6 69.284 234.058 70.5128 233.882 71.8721C233.705 73.2313 232.981 74.5401 231.706 75.8026L225.97 70.0078C225.225 70.841 224.813 71.7121 224.733 72.6253C224.653 73.5385 224.969 74.3549 225.688 75.0829C226.799 76.2023 227.994 76.3875 229.274 75.6342L230.406 76.7789C229.434 77.3975 228.449 77.6458 227.452 77.5195C226.458 77.3933 225.541 76.9051 224.699 76.055L224.695 76.0593ZM232.493 71.2997C232.543 70.5044 232.241 69.7721 231.58 69.103C230.919 68.4339 230.174 68.1267 229.341 68.1772C228.508 68.2277 227.687 68.556 226.879 69.1662L231.34 73.6732C232.055 72.8905 232.438 72.0993 232.493 71.2997Z"
                                    fill="black" />
                                <path
                                    d="M238.195 74.7761L236.853 75.904L236.878 75.9334C237.522 75.8366 238.153 75.8829 238.767 76.0765C239.382 76.2701 239.904 76.6194 240.333 77.1328C240.489 77.3221 240.602 77.5199 240.674 77.7261L239.458 78.7487L239.42 78.7024C239.34 78.5047 239.209 78.2942 239.024 78.0754C238.481 77.4315 237.791 77.0696 236.954 76.9897C236.116 76.9139 235.334 77.1791 234.605 77.7935L230.124 81.5598L229.063 80.2974L237.135 73.5137L238.195 74.7761Z"
                                    fill="black" />
                                <path
                                    d="M231.323 88.5745C230.957 88.0653 230.73 87.6192 230.637 87.2321L231.832 86.3778L231.879 86.4451C231.917 86.7523 232.072 87.1016 232.35 87.4888C232.565 87.7875 232.817 87.9811 233.107 88.0737C233.398 88.1663 233.798 88.1452 234.307 88.0148L235.388 87.7413L241.309 78.4326L242.353 79.8929L238.465 85.7381L237.206 87.5182L237.232 87.5519C238.014 87.291 238.709 87.0806 239.31 86.9164L246.048 85.048L247.07 86.4746L235.182 89.4498C234.105 89.7191 233.293 89.7822 232.746 89.6392C232.198 89.4961 231.723 89.1426 231.319 88.5787L231.323 88.5745Z"
                                    fill="black" />
                                <path
                                    d="M242.951 100.976C242.033 99.2465 241.751 97.6937 242.109 96.3092C242.467 94.9247 243.312 93.8347 244.642 93.0352L245.484 94.6217C243.388 96.0104 242.988 97.9252 244.285 100.362C244.777 101.288 245.374 101.919 246.086 102.255C246.797 102.592 247.542 102.554 248.32 102.142C248.67 101.957 248.939 101.729 249.132 101.456C249.326 101.182 249.456 100.909 249.528 100.635C249.595 100.362 249.604 99.9998 249.553 99.5495C249.499 99.0993 249.431 98.6953 249.347 98.3334C249.263 97.9714 249.132 97.4791 248.96 96.8647C248.754 96.1282 248.611 95.5054 248.531 94.992C248.451 94.4786 248.43 93.94 248.463 93.3634C248.497 92.7911 248.665 92.2903 248.968 91.8611C249.271 91.4318 249.717 91.0615 250.307 90.7459C251.363 90.1862 252.406 90.1441 253.437 90.6196C254.468 91.0952 255.335 91.9957 256.034 93.3171C257.57 96.2082 257.094 98.548 254.612 100.328L253.799 98.7963C254.649 98.1903 255.154 97.4833 255.314 96.6753C255.478 95.8673 255.302 94.9794 254.793 94.0199C254.321 93.132 253.766 92.5218 253.13 92.1893C252.491 91.8569 251.843 91.8695 251.182 92.2188C250.896 92.3703 250.668 92.5639 250.509 92.7953C250.349 93.0268 250.239 93.275 250.189 93.5402C250.138 93.8053 250.134 94.1251 250.176 94.4954C250.218 94.8658 250.281 95.2193 250.361 95.5643C250.441 95.9052 250.555 96.3176 250.702 96.7931C250.9 97.458 251.051 98.0093 251.152 98.447C251.253 98.8846 251.329 99.3938 251.371 99.9704C251.417 100.547 251.371 101.035 251.249 101.435C251.123 101.835 250.896 102.239 250.567 102.651C250.239 103.063 249.793 103.421 249.229 103.72C248.051 104.343 246.902 104.397 245.77 103.884C244.642 103.366 243.7 102.399 242.951 100.985V100.976Z"
                                    fill="black" />
                                <path
                                    d="M254.443 102.84L255.681 102.314L256.278 103.724L259.338 102.428L259.981 103.947L256.922 105.243L257.717 107.12L256.48 107.646L255.685 105.769L249.377 108.442C248.775 108.698 248.615 109.149 248.888 109.801C249.006 110.074 249.162 110.327 249.364 110.554L249.389 110.609L248.076 111.164C247.815 110.79 247.597 110.398 247.428 109.999C246.822 108.572 247.146 107.596 248.4 107.061L255.045 104.246L254.448 102.836L254.443 102.84Z"
                                    fill="black" />
                                <path
                                    d="M251.123 120.453C250.791 119.459 251.094 118.719 252.032 118.231L252.024 118.21C250.69 117.738 249.789 116.808 249.322 115.419C248.989 114.426 248.956 113.534 249.217 112.743C249.482 111.952 250.063 111.405 250.967 111.102C251.43 110.946 251.859 110.883 252.251 110.917C252.642 110.95 252.983 111.047 253.273 111.207C253.564 111.367 253.858 111.624 254.157 111.977C254.456 112.331 254.708 112.676 254.919 113.025C255.129 113.37 255.373 113.816 255.659 114.367C255.836 114.725 255.967 114.978 256.055 115.125C256.139 115.276 256.261 115.466 256.421 115.701C256.577 115.937 256.72 116.089 256.846 116.16C256.972 116.232 257.124 116.286 257.309 116.328C257.494 116.371 257.688 116.35 257.894 116.282C258.462 116.093 258.828 115.748 259.001 115.255C259.169 114.759 259.14 114.157 258.9 113.45C258.357 111.838 257.343 111.258 255.857 111.699L255.352 110.193C256.379 109.877 257.313 109.953 258.159 110.42C259.005 110.887 259.64 111.763 260.07 113.038C260.899 115.499 260.255 117.086 258.142 117.793L253.387 119.392C252.949 119.539 252.663 119.716 252.533 119.927C252.402 120.137 252.453 120.432 252.68 120.814L252.701 120.873L251.561 121.256C251.371 121.033 251.224 120.768 251.119 120.457L251.123 120.453ZM250.643 115.365C250.967 116.333 251.498 116.985 252.238 117.326C252.975 117.667 253.682 117.721 254.351 117.498L256.051 116.926C255.592 116.547 255.096 115.87 254.548 114.893C254.342 114.532 254.178 114.25 254.06 114.048C253.942 113.841 253.778 113.618 253.576 113.37C253.37 113.122 253.181 112.949 253.004 112.852C252.827 112.756 252.617 112.688 252.369 112.659C252.12 112.625 251.855 112.659 251.573 112.756C250.492 113.122 250.18 113.989 250.643 115.369V115.365Z"
                                    fill="black" />
                                <path
                                    d="M249.233 127.005C248.935 125.692 248.943 124.606 249.271 123.743C249.595 122.881 250.197 122.3 251.077 122.001L251.417 123.491C250.403 123.878 250.096 124.938 250.496 126.672C250.946 128.633 252.053 129.412 253.812 129.008L255.264 128.675L255.255 128.637C254.633 128.347 254.132 128.002 253.761 127.598C253.391 127.194 253.126 126.651 252.966 125.961C252.663 124.635 252.89 123.449 253.656 122.392C254.418 121.34 255.542 120.642 257.027 120.301C258.576 119.947 259.905 120.082 261.012 120.713C262.119 121.345 262.818 122.283 263.1 123.529C263.411 124.88 263.133 126.045 262.27 127.026L262.279 127.064L263.592 126.765L263.962 128.377L254.245 130.603C252.932 130.902 251.851 130.729 251.001 130.081C250.147 129.433 249.562 128.406 249.238 127L249.233 127.005ZM254.338 125.73C254.813 127.808 256.324 128.558 258.87 127.977C261.294 127.421 262.266 126.096 261.787 124.004C261.572 123.062 261.067 122.422 260.28 122.081C259.489 121.74 258.525 121.698 257.385 121.959C256.244 122.22 255.398 122.679 254.843 123.335C254.287 123.992 254.119 124.791 254.334 125.73H254.338Z"
                                    fill="black" />
                                <path
                                    d="M254.287 137.096C254.094 135.543 254.46 134.247 255.39 133.207C256.32 132.168 257.574 131.545 259.152 131.347C260.705 131.154 262.064 131.452 263.238 132.243C264.413 133.035 265.09 134.158 265.275 135.614C265.469 137.15 265.082 138.404 264.114 139.376C263.146 140.349 261.774 140.946 259.994 141.169L258.98 133.077C257.881 133.283 257.023 133.725 256.4 134.398C255.777 135.071 255.533 135.913 255.659 136.927C255.857 138.493 256.69 139.368 258.167 139.553L258.369 141.152C257.221 141.051 256.291 140.647 255.575 139.94C254.864 139.233 254.435 138.291 254.283 137.104L254.287 137.096ZM263.369 138.072C263.895 137.47 264.101 136.704 263.983 135.774C263.865 134.844 263.466 134.146 262.776 133.674C262.085 133.207 261.235 132.967 260.221 132.959L261.012 139.25C262.056 139.065 262.843 138.669 263.373 138.072H263.369Z"
                                    fill="black" />
                                <path
                                    d="M184.161 15.3644C182.406 14.8047 181.249 13.6937 180.689 12.023C180.13 10.3523 180.218 8.35763 180.954 6.03889C181.695 3.70752 182.789 2.02843 184.237 1.00582C185.684 -0.0209873 187.263 -0.260857 188.98 0.286215C190.697 0.833286 191.837 1.93585 192.418 3.59389C192.994 5.25615 192.91 7.25928 192.165 9.60327C191.425 11.9346 190.351 13.6179 188.946 14.6574C187.54 15.6968 185.945 15.9325 184.161 15.3644ZM182.343 11.3413C182.646 12.6037 183.42 13.437 184.67 13.8326C185.92 14.2281 187.023 14.0051 187.982 13.1592C188.942 12.3134 189.724 10.9331 190.33 9.02253C190.928 7.14145 191.079 5.56335 190.781 4.29246C190.482 3.02157 189.72 2.19255 188.5 1.80539C187.25 1.40982 186.139 1.63285 185.163 2.48292C184.186 3.33298 183.399 4.71329 182.789 6.62383C182.179 8.53437 182.04 10.0788 182.343 11.3413Z"
                                    fill="black" />
                                <path
                                    d="M194.358 18.2557L197.703 7.74347L194.543 6.7377L194.918 5.55939C197.072 6.18221 198.558 5.61831 199.378 3.86768L200.746 4.30533L196.13 18.8238L194.358 18.2599V18.2557Z"
                                    fill="black" />
                            </g>
                            <g class="stage-2 rendering-project__nav-item count-2">
                                <path
                                    d="M216.043 94.3657L217.07 92.6614L217.04 92.6319C215.235 92.8802 213.657 92.2911 212.302 90.8603C210.9 89.379 210.273 87.6999 210.421 85.8188C210.568 83.9377 211.452 82.2292 213.068 80.6974C214.688 79.1656 216.438 78.3492 218.324 78.2566C220.209 78.164 221.918 78.9215 223.441 80.529C224.581 81.7326 225.2 82.9951 225.301 84.3165C225.402 85.6378 225.006 86.8835 224.119 88.0618L222.814 86.6857C223.395 85.8567 223.639 85.0024 223.555 84.1313C223.466 83.2602 223.037 82.4143 222.258 81.5937C221.101 80.3691 219.822 79.8305 218.425 79.9778C217.028 80.1208 215.673 80.8152 214.36 82.0608C213.068 83.2854 212.344 84.6152 212.197 86.046C212.049 87.4811 212.483 88.7351 213.501 89.8082C214.482 90.8434 215.538 91.3484 216.67 91.3148C217.802 91.2811 218.841 90.8182 219.788 89.9218L220.041 89.682L217.028 86.5005L218.181 85.4064L222.456 89.9218L216.864 95.2242L216.051 94.3657H216.043Z"
                                    fill="#BBBDBF" />
                                <path
                                    d="M220.247 100.548C219.347 99.2683 219.06 97.9554 219.393 96.5961C219.725 95.2411 220.538 94.1006 221.838 93.1832C223.113 92.2827 224.455 91.9039 225.865 92.047C227.275 92.1901 228.403 92.8634 229.249 94.0628C230.141 95.3294 230.393 96.6172 229.993 97.9301C229.598 99.2431 228.668 100.417 227.199 101.452L222.494 94.7908C221.623 95.4893 221.072 96.2805 220.841 97.1684C220.609 98.0564 220.79 98.9149 221.375 99.7481C222.284 101.036 223.433 101.415 224.821 100.884L225.752 102.201C224.687 102.652 223.677 102.736 222.717 102.446C221.758 102.159 220.933 101.524 220.243 100.548H220.247ZM228.718 97.1348C228.899 96.3562 228.718 95.5861 228.18 94.8202C227.637 94.0543 226.955 93.6251 226.126 93.5367C225.297 93.4484 224.434 93.6377 223.534 94.109L227.191 99.2894C228.024 98.6329 228.533 97.9175 228.718 97.139V97.1348Z"
                                    fill="#BBBDBF" />
                                <path
                                    d="M233.873 101.743L232.653 102.404L232.674 102.437C234.016 102.639 235.026 103.359 235.7 104.604C236.23 105.585 236.386 106.49 236.167 107.319C235.948 108.148 235.363 108.821 234.408 109.335L227.898 112.853L227.115 111.401L233.503 107.95C234.101 107.626 234.462 107.193 234.593 106.641C234.723 106.094 234.61 105.488 234.252 104.832C233.852 104.091 233.284 103.607 232.548 103.388C231.811 103.169 231.066 103.262 230.313 103.67L224.607 106.751L223.824 105.299L233.099 100.291L233.882 101.743H233.873Z"
                                    fill="#BBBDBF" />
                                <path
                                    d="M230.023 118.752C229.45 117.296 229.488 115.95 230.132 114.713C230.776 113.475 231.841 112.562 233.318 111.981C234.774 111.409 236.167 111.363 237.501 111.838C238.835 112.314 239.769 113.235 240.308 114.603C240.876 116.047 240.808 117.355 240.114 118.534C239.415 119.712 238.233 120.634 236.562 121.29L233.579 113.698C232.564 114.17 231.841 114.809 231.407 115.613C230.974 116.421 230.94 117.296 231.315 118.247C231.891 119.716 232.918 120.356 234.391 120.171L234.98 121.669C233.84 121.854 232.838 121.694 231.975 121.185C231.113 120.676 230.46 119.868 230.023 118.752ZM239.062 117.456C239.424 116.745 239.432 115.95 239.091 115.079C238.746 114.208 238.187 113.627 237.4 113.345C236.617 113.063 235.733 113.042 234.744 113.282L237.063 119.182C238.031 118.744 238.696 118.167 239.058 117.456H239.062Z"
                                    fill="#BBBDBF" />
                                <path
                                    d="M242.9 123.032L241.212 123.507L241.225 123.545C241.852 123.722 242.407 124.025 242.891 124.454C243.371 124.883 243.704 125.418 243.884 126.062C243.952 126.297 243.973 126.525 243.948 126.743L242.416 127.177L242.399 127.118C242.407 126.903 242.374 126.659 242.298 126.382C242.071 125.569 241.587 124.959 240.859 124.543C240.127 124.126 239.302 124.05 238.389 124.307L232.758 125.898L232.308 124.307L242.454 121.445L242.904 123.036L242.9 123.032Z"
                                    fill="#BBBDBF" />
                                <path
                                    d="M235.418 138.498C235.228 137.467 235.632 136.781 236.634 136.427V136.406C235.376 135.754 234.618 134.706 234.349 133.263C234.159 132.232 234.252 131.348 234.627 130.599C235.001 129.854 235.653 129.391 236.592 129.219C237.072 129.13 237.505 129.13 237.888 129.219C238.271 129.307 238.595 129.45 238.86 129.652C239.125 129.854 239.378 130.149 239.626 130.536C239.87 130.927 240.072 131.306 240.232 131.68C240.392 132.051 240.573 132.53 240.775 133.115C240.901 133.494 240.994 133.763 241.057 133.923C241.12 134.083 241.212 134.294 241.339 134.546C241.461 134.799 241.579 134.971 241.692 135.06C241.806 135.148 241.953 135.224 242.13 135.291C242.307 135.354 242.504 135.367 242.719 135.329C243.308 135.219 243.721 134.933 243.96 134.466C244.2 133.999 244.251 133.402 244.116 132.665C243.809 130.994 242.887 130.271 241.351 130.502L241.061 128.937C242.121 128.768 243.039 128.974 243.809 129.559C244.579 130.144 245.088 131.095 245.332 132.421C245.804 134.975 244.941 136.452 242.753 136.856L237.821 137.765C237.366 137.85 237.059 137.984 236.899 138.174C236.739 138.363 236.748 138.662 236.92 139.07L236.933 139.129L235.75 139.348C235.594 139.099 235.485 138.818 235.426 138.493L235.418 138.498ZM235.658 133.393C235.843 134.395 236.276 135.118 236.958 135.556C237.64 135.998 238.33 136.154 239.024 136.023L240.787 135.699C240.388 135.262 239.988 134.521 239.588 133.473C239.432 133.086 239.31 132.783 239.222 132.564C239.134 132.345 239.003 132.101 238.839 131.828C238.671 131.554 238.507 131.356 238.347 131.234C238.187 131.112 237.985 131.015 237.745 130.952C237.505 130.885 237.236 130.881 236.945 130.935C235.822 131.142 235.392 131.962 235.658 133.393Z"
                                    fill="#BBBDBF" />
                                <path
                                    d="M235.653 140.378L250.155 138.889L250.323 140.53L235.821 142.02L235.653 140.378Z"
                                    fill="#BBBDBF" />
                                <path
                                    d="M236.268 147.364L250.841 147.646L250.647 157.531L249.036 157.502L249.191 149.452L244.646 149.363L244.516 156.071L242.967 156.042L243.098 149.334L236.23 149.199L236.264 147.364H236.268Z"
                                    fill="#BBBDBF" />
                                <path
                                    d="M235.106 162.017C235.317 160.468 236.003 159.307 237.168 158.541C238.334 157.771 239.706 157.493 241.284 157.708C242.833 157.918 244.074 158.554 245.008 159.618C245.942 160.683 246.309 161.946 246.115 163.397C245.909 164.933 245.214 166.044 244.028 166.739C242.845 167.429 241.364 167.656 239.584 167.416L240.674 159.332C239.559 159.252 238.616 159.454 237.846 159.947C237.071 160.439 236.617 161.192 236.482 162.202C236.272 163.764 236.857 164.824 238.233 165.379L238.018 166.974C236.933 166.583 236.137 165.952 235.628 165.089C235.119 164.226 234.946 163.2 235.106 162.017ZM243.636 165.287C244.301 164.841 244.693 164.155 244.819 163.225C244.945 162.295 244.735 161.516 244.188 160.885C243.641 160.254 242.879 159.808 241.903 159.538L241.057 165.821C242.113 165.91 242.976 165.729 243.641 165.283L243.636 165.287Z"
                                    fill="#BBBDBF" />
                                <path
                                    d="M233.078 172.211C233.473 170.7 234.294 169.631 235.544 169.008C236.794 168.385 238.191 168.276 239.727 168.676C241.238 169.071 242.395 169.85 243.19 171.024C243.99 172.194 244.2 173.49 243.83 174.908C243.438 176.406 242.614 177.429 241.355 177.972C240.097 178.514 238.599 178.561 236.865 178.106L238.923 170.216C237.829 170.001 236.865 170.09 236.04 170.485C235.216 170.881 234.673 171.571 234.416 172.56C234.02 174.083 234.471 175.207 235.771 175.926L235.363 177.483C234.332 176.962 233.616 176.242 233.217 175.325C232.817 174.407 232.766 173.368 233.069 172.211H233.078ZM241.149 176.486C241.86 176.124 242.336 175.489 242.572 174.58C242.807 173.671 242.694 172.875 242.227 172.181C241.759 171.491 241.057 170.952 240.118 170.569L238.519 176.705C239.558 176.92 240.434 176.844 241.149 176.482V176.486Z"
                                    fill="#BBBDBF" />
                                <path
                                    d="M231.588 178.151L245.341 182.987L244.794 184.544L231.041 179.708L231.588 178.151Z"
                                    fill="#BBBDBF" />
                                <path
                                    d="M230.279 181.725L240.059 185.655L239.445 187.187L229.665 183.256L230.279 181.725ZM241.915 186.404L243.809 187.166L243.195 188.698L241.301 187.936L241.915 186.404Z"
                                    fill="#BBBDBF" />
                                <path
                                    d="M237.678 191.29L236.436 190.671L236.419 190.709C237.025 191.925 237.013 193.167 236.382 194.429C235.881 195.427 235.233 196.075 234.429 196.369C233.625 196.668 232.737 196.571 231.765 196.087L225.146 192.775L225.886 191.298L232.375 194.547C232.981 194.85 233.549 194.896 234.071 194.69C234.593 194.48 235.022 194.042 235.359 193.373C235.738 192.62 235.805 191.879 235.561 191.147C235.317 190.419 234.812 189.859 234.046 189.476L228.247 186.577L228.988 185.1L238.414 189.817L237.673 191.294L237.678 191.29Z"
                                    fill="#BBBDBF" />
                                <path
                                    d="M219.027 195.869C219.771 194.745 220.567 194.004 221.417 193.647C222.267 193.289 223.1 193.323 223.925 193.756L223.079 195.031C222.103 194.564 221.122 195.069 220.138 196.555C219.027 198.23 219.224 199.568 220.731 200.569L221.972 201.39L221.993 201.356C221.775 200.704 221.682 200.106 221.716 199.559C221.754 199.012 221.964 198.444 222.355 197.855C223.104 196.723 224.127 196.066 225.415 195.894C226.702 195.721 227.982 196.054 229.253 196.896C230.578 197.775 231.395 198.831 231.698 200.069C232.001 201.306 231.803 202.459 231.096 203.523C230.33 204.681 229.295 205.283 227.99 205.329L227.969 205.362L229.093 206.107L228.18 207.483L219.868 201.975C218.745 201.23 218.126 200.329 218.008 199.265C217.89 198.2 218.227 197.068 219.027 195.864V195.869ZM223.466 198.688C222.288 200.468 222.785 202.076 224.96 203.519C227.035 204.895 228.664 204.685 229.85 202.896C230.385 202.093 230.503 201.285 230.204 200.477C229.909 199.669 229.274 198.941 228.297 198.297C227.321 197.653 226.408 197.354 225.549 197.405C224.691 197.455 223.997 197.884 223.462 198.688H223.466Z"
                                    fill="#BBBDBF" />
                                <path
                                    d="M283.118 140.534C283.105 138.691 283.808 137.247 285.226 136.199C286.645 135.151 288.568 134.621 291 134.609C293.445 134.596 295.381 135.118 296.803 136.178C298.226 137.239 298.941 138.67 298.95 140.467C298.958 142.263 298.264 143.694 296.862 144.759C295.461 145.819 293.529 146.358 291.067 146.375C288.618 146.387 286.687 145.887 285.264 144.873C283.842 143.854 283.127 142.411 283.118 140.542V140.534ZM286.384 137.567C285.273 138.245 284.726 139.238 284.73 140.551C284.738 141.864 285.294 142.844 286.392 143.492C287.495 144.14 289.047 144.46 291.051 144.448C293.024 144.435 294.573 144.09 295.688 143.416C296.803 142.739 297.359 141.758 297.35 140.479C297.342 139.2 296.782 138.177 295.675 137.517C294.564 136.852 293.007 136.528 291.004 136.536C289.031 136.549 287.486 136.889 286.379 137.567H286.384Z"
                                    fill="#BBBDBF" />
                                <path
                                    d="M283.493 147.961C284.423 147.999 285.239 148.155 285.95 148.424C286.657 148.693 287.31 149.152 287.903 149.804C288.496 150.456 288.921 150.97 289.182 151.344C289.443 151.719 289.847 152.375 290.398 153.318C290.428 153.347 290.445 153.369 290.453 153.385C290.462 153.398 290.47 153.423 290.487 153.453C290.504 153.482 290.516 153.507 290.533 153.528C290.55 153.549 290.563 153.575 290.579 153.604C291.265 154.766 291.854 155.586 292.351 156.07C292.848 156.554 293.517 156.794 294.354 156.79C295.284 156.786 296.033 156.483 296.606 155.881C297.178 155.279 297.46 154.48 297.456 153.478C297.451 152.476 297.127 151.66 296.492 151.075C295.869 150.503 294.859 150.221 293.458 150.229L293.445 148.285C295.229 148.277 296.601 148.744 297.565 149.699C298.512 150.65 298.992 151.959 299.004 153.625C299.013 155.144 298.583 156.369 297.721 157.303C296.858 158.237 295.747 158.709 294.392 158.717C293.845 158.717 293.344 158.641 292.885 158.482C292.427 158.322 292.056 158.153 291.779 157.981C291.497 157.804 291.177 157.484 290.811 157.013C290.445 156.542 290.196 156.196 290.066 155.965C289.931 155.738 289.679 155.292 289.308 154.631C289.233 154.501 289.174 154.395 289.132 154.324C288.728 153.617 288.378 153.036 288.084 152.573C287.789 152.11 287.373 151.631 286.847 151.134C286.321 150.637 285.799 150.322 285.281 150.191L285.327 158.461L283.56 158.469L283.501 147.965L283.493 147.961Z"
                                    fill="#BBBDBF" />
                            </g>
                            <g class="stage-3 rendering-project__nav-item count-3">
                                <path
                                    d="M216.817 154.876L230.326 162.539L229.989 164.572L214.73 167.509L215.054 165.535L219.691 164.732L220.638 159L216.51 156.728L216.817 154.876ZM226.568 162.274L222.023 159.766L221.244 164.475L226.345 163.621L228.483 163.314L228.491 163.276C227.729 162.888 227.09 162.556 226.568 162.274Z"
                                    fill="#BBBDBF" />
                                <path
                                    d="M214.128 168.574L228.095 172.753L227.569 174.512L213.602 170.333L214.128 168.574Z"
                                    fill="#BBBDBF" />
                                <path
                                    d="M211.961 175.496L224.994 182.031L221.943 188.116C221.371 189.257 220.579 190.018 219.565 190.401C218.551 190.784 217.512 190.704 216.443 190.17C214.776 189.337 214.082 188.045 214.351 186.294L214.297 186.265C213.741 186.795 213.152 187.073 212.521 187.098C211.889 187.123 211.065 186.917 210.038 186.479C208.312 185.764 207.281 185.499 206.949 185.684L206.877 185.646L207.765 183.879C207.942 183.799 208.22 183.82 208.599 183.942C208.977 184.064 209.752 184.371 210.917 184.863C211.894 185.276 212.681 185.377 213.274 185.166C213.867 184.956 214.385 184.405 214.831 183.517L216.649 179.889L211.145 177.129L211.965 175.487L211.961 175.496ZM222.751 182.957L217.975 180.562L216.039 184.426C215.589 185.326 215.458 186.109 215.643 186.782C215.833 187.456 216.3 187.977 217.053 188.356C217.865 188.764 218.572 188.861 219.17 188.642C219.767 188.423 220.298 187.847 220.769 186.913L222.751 182.957Z"
                                    fill="#BBBDBF" />
                                <path
                                    d="M203.288 189.931C204.214 188.672 205.375 187.987 206.768 187.873C208.161 187.759 209.495 188.172 210.778 189.114C212.037 190.04 212.819 191.197 213.127 192.578C213.434 193.958 213.152 195.242 212.281 196.424C211.363 197.67 210.219 198.314 208.847 198.351C207.479 198.389 206.069 197.876 204.626 196.811L209.461 190.242C208.523 189.636 207.597 189.363 206.684 189.426C205.771 189.489 205.009 189.927 204.407 190.747C203.473 192.018 203.477 193.226 204.42 194.375L203.465 195.671C202.703 194.804 202.303 193.87 202.274 192.868C202.244 191.867 202.581 190.886 203.292 189.922L203.288 189.931ZM209.205 196.895C210 196.824 210.677 196.411 211.233 195.654C211.788 194.896 211.978 194.114 211.801 193.302C211.624 192.489 211.17 191.728 210.442 191.021L206.684 196.125C207.572 196.71 208.409 196.967 209.209 196.895H209.205Z"
                                    fill="#BBBDBF" />
                                <path
                                    d="M207.113 200.359L208.098 201.276L207.109 202.337L208.346 203.49C208.981 204.083 209.28 204.685 209.238 205.299C209.196 205.91 208.868 206.549 208.245 207.218C208.068 207.408 207.87 207.601 207.643 207.803L206.616 206.844C206.755 206.713 206.881 206.591 206.991 206.469C207.353 206.082 207.546 205.754 207.576 205.485C207.605 205.215 207.466 204.933 207.155 204.647L205.977 203.549L204.643 204.98L203.658 204.062L204.992 202.631L198.267 196.361L199.395 195.153L206.12 201.424L207.109 200.363L207.113 200.359Z"
                                    fill="#BBBDBF" />
                                <path
                                    d="M192.733 201.2C193.924 200.186 195.208 199.782 196.588 199.988C197.968 200.194 199.176 200.901 200.207 202.113C201.221 203.304 201.722 204.604 201.705 206.022C201.688 207.436 201.125 208.623 200.005 209.574C198.827 210.58 197.564 210.946 196.222 210.668C194.88 210.391 193.625 209.574 192.464 208.207L198.671 202.917C197.897 202.113 197.055 201.637 196.155 201.486C195.25 201.339 194.412 201.591 193.634 202.256C192.435 203.279 192.161 204.457 192.818 205.791L191.593 206.835C191.046 205.816 190.873 204.819 191.071 203.834C191.269 202.854 191.824 201.974 192.733 201.196V201.2ZM196.904 209.33C197.695 209.44 198.448 209.191 199.159 208.585C199.875 207.975 200.237 207.255 200.249 206.422C200.262 205.589 199.997 204.747 199.445 203.893L194.619 208.009C195.347 208.779 196.108 209.221 196.9 209.334L196.904 209.33Z"
                                    fill="#BBBDBF" />
                                <path
                                    d="M192.675 214.793L191.715 213.324L191.681 213.345C191.702 213.997 191.58 214.616 191.315 215.205C191.05 215.794 190.642 216.27 190.082 216.636C189.876 216.771 189.666 216.859 189.451 216.901L188.58 215.571L188.63 215.537C188.837 215.483 189.06 215.378 189.3 215.222C190.006 214.759 190.444 214.119 190.621 213.295C190.798 212.47 190.621 211.662 190.103 210.866L186.897 205.972L188.277 205.067L194.055 213.884L192.675 214.788V214.793Z"
                                    fill="#BBBDBF" />
                                <path
                                    d="M178.964 210.223C180.365 209.528 181.712 209.453 183 209.987C184.287 210.526 185.285 211.506 185.992 212.933C186.686 214.334 186.85 215.719 186.488 217.091C186.126 218.458 185.289 219.468 183.972 220.121C182.583 220.806 181.27 220.853 180.037 220.259C178.804 219.666 177.786 218.563 176.99 216.956L184.3 213.341C183.745 212.373 183.046 211.704 182.209 211.338C181.367 210.972 180.492 211.018 179.578 211.468C178.164 212.167 177.613 213.244 177.925 214.7L176.481 215.416C176.199 214.296 176.275 213.282 176.708 212.382C177.142 211.477 177.891 210.761 178.964 210.231V210.223ZM181.026 219.123C181.767 219.422 182.558 219.367 183.399 218.951C184.241 218.534 184.767 217.924 184.986 217.12C185.205 216.316 185.15 215.433 184.822 214.469L179.141 217.28C179.658 218.206 180.29 218.82 181.03 219.119L181.026 219.123Z"
                                    fill="#BBBDBF" />
                                <path
                                    d="M175.412 223.492L174.996 222.17L174.958 222.183C174.507 223.466 173.607 224.321 172.26 224.746C171.196 225.082 170.278 225.065 169.508 224.695C168.738 224.325 168.187 223.622 167.858 222.587L165.632 215.53L167.206 215.033L169.39 221.956C169.596 222.604 169.954 223.041 170.467 223.273C170.981 223.5 171.595 223.504 172.306 223.281C173.11 223.029 173.691 222.562 174.044 221.88C174.398 221.198 174.448 220.449 174.192 219.633L172.239 213.451L173.813 212.954L176.986 223.008L175.412 223.504V223.492Z"
                                    fill="#BBBDBF" />
                                <path
                                    d="M159.505 216.299C161.024 216.064 162.324 216.4 163.406 217.305C164.487 218.21 165.148 219.443 165.392 221C165.636 222.557 165.375 223.933 164.618 225.124C163.86 226.315 162.724 227.026 161.205 227.262C159.985 227.451 158.933 227.279 158.053 226.748C157.174 226.218 156.555 225.41 156.193 224.325L157.847 224.068C158.078 224.762 158.465 225.271 159.013 225.6C159.56 225.928 160.22 226.033 160.999 225.911C162.072 225.747 162.842 225.225 163.305 224.358C163.768 223.487 163.907 222.456 163.722 221.261C163.536 220.066 163.09 219.127 162.388 218.446C161.685 217.764 160.793 217.507 159.72 217.671C158.886 217.802 158.255 218.13 157.83 218.656C157.401 219.182 157.22 219.86 157.279 220.693L155.667 220.941C155.583 219.674 155.873 218.635 156.547 217.823C157.22 217.011 158.205 216.501 159.509 216.299H159.505Z"
                                    fill="#BBBDBF" />
                                <path
                                    d="M149.527 217.04C151.089 217.015 152.338 217.52 153.273 218.559C154.207 219.599 154.687 220.912 154.712 222.502C154.737 224.064 154.295 225.389 153.378 226.471C152.465 227.552 151.274 228.103 149.805 228.129C148.256 228.154 147.053 227.632 146.19 226.567C145.332 225.503 144.886 224.072 144.856 222.275L153.012 222.145C152.928 221.029 152.583 220.129 151.981 219.439C151.379 218.749 150.567 218.412 149.548 218.429C147.97 218.454 147.011 219.19 146.67 220.638L145.058 220.663C145.285 219.531 145.786 218.648 146.565 218.016C147.343 217.385 148.332 217.061 149.527 217.04ZM147.575 225.961C148.113 226.551 148.854 226.837 149.792 226.824C150.731 226.807 151.467 226.483 152.01 225.852C152.549 225.217 152.881 224.396 152.999 223.39L146.657 223.491C146.729 224.552 147.036 225.372 147.575 225.966V225.961Z"
                                    fill="#BBBDBF" />
                                <path
                                    d="M194.955 276.174C196.706 275.594 198.297 275.817 199.728 276.839C201.163 277.862 202.261 279.528 203.027 281.839C203.797 284.162 203.898 286.16 203.326 287.84C202.758 289.519 201.617 290.642 199.913 291.206C198.204 291.77 196.63 291.551 195.187 290.545C193.743 289.54 192.637 287.869 191.862 285.533C191.088 283.198 190.97 281.216 191.5 279.549C192.026 277.883 193.18 276.755 194.955 276.17V276.174ZM198.789 278.363C197.804 277.517 196.685 277.302 195.439 277.714C194.194 278.127 193.432 278.956 193.154 280.206C192.877 281.456 193.053 283.03 193.685 284.932C194.307 286.804 195.111 288.172 196.1 289.022C197.089 289.872 198.192 290.099 199.408 289.695C200.653 289.283 201.419 288.446 201.71 287.187C202 285.925 201.827 284.347 201.196 282.445C200.565 280.542 199.77 279.208 198.785 278.363H198.789Z"
                                    fill="#BBBDBF" />
                                <path
                                    d="M182.343 280.353C183.98 279.81 185.487 279.81 186.859 280.349C188.235 280.887 189.194 281.944 189.75 283.513L188.008 284.09C187.599 282.954 186.947 282.188 186.047 281.792C185.146 281.401 184.098 281.401 182.895 281.801C181.859 282.146 181.119 282.672 180.673 283.387C180.227 284.103 180.168 284.957 180.496 285.95C180.799 286.859 181.35 287.444 182.162 287.705C182.97 287.966 183.985 287.894 185.201 287.49L186.101 287.191L186.552 288.555L185.672 288.845C184.565 289.211 183.799 289.708 183.37 290.331C182.941 290.954 182.857 291.656 183.113 292.443C183.37 293.213 183.867 293.727 184.616 293.984C185.361 294.24 186.181 294.223 187.078 293.925C188.1 293.588 188.807 293.016 189.199 292.208C189.59 291.4 189.619 290.495 189.287 289.489L191.008 288.917C191.467 290.348 191.383 291.644 190.76 292.805C190.137 293.967 189.039 294.808 187.473 295.326C186.101 295.78 184.843 295.806 183.703 295.402C182.558 294.998 181.784 294.185 181.384 292.969C180.892 291.488 181.35 290.217 182.756 289.161L182.735 289.098C180.639 289.232 179.267 288.328 178.623 286.383C178.177 285.041 178.316 283.821 179.031 282.731C179.751 281.641 180.858 280.845 182.352 280.349L182.343 280.353Z"
                                    fill="#BBBDBF" />
                            </g>
                            <g class="stage-4 rendering-project__nav-item count-4">
                                <path
                                    d="M163.086 235.506C165.111 235.178 166.857 235.607 168.317 236.802C169.778 237.997 170.686 239.693 171.044 241.894C171.398 244.066 171.078 245.963 170.08 247.575C169.083 249.191 167.539 250.168 165.443 250.508C163.806 250.774 162.417 250.567 161.273 249.886C160.128 249.204 159.345 248.194 158.92 246.86L160.692 246.574C161.016 247.457 161.571 248.118 162.367 248.552C163.162 248.985 164.113 249.115 165.228 248.935C166.773 248.682 167.888 247.933 168.582 246.683C169.277 245.433 169.479 243.939 169.197 242.193C168.911 240.421 168.225 239.07 167.143 238.136C166.062 237.202 164.778 236.857 163.288 237.101C162.001 237.311 161.066 237.85 160.481 238.713C159.901 239.58 159.652 240.59 159.745 241.747L157.952 242.037C157.851 241.322 157.898 240.569 158.091 239.773C158.285 238.978 158.596 238.288 159.025 237.711C159.897 236.537 161.247 235.801 163.086 235.502V235.506Z"
                                    fill="#BBBDBF" />
                                <path
                                    d="M147.592 238.207C148.496 237.13 149.713 236.575 151.249 236.545C152.785 236.516 154.026 237.021 154.981 238.064C155.932 239.108 156.425 240.417 156.454 241.991C156.484 243.565 156.046 244.894 155.137 245.972C154.228 247.049 153.003 247.604 151.467 247.634C149.931 247.663 148.69 247.158 147.747 246.115C146.8 245.071 146.316 243.762 146.283 242.188C146.253 240.61 146.687 239.285 147.592 238.207ZM153.816 239.053C153.21 238.283 152.364 237.909 151.274 237.93C150.188 237.951 149.359 238.359 148.791 239.15C148.223 239.941 147.949 240.943 147.975 242.155C148 243.379 148.315 244.373 148.921 245.143C149.527 245.913 150.369 246.287 151.442 246.266C152.528 246.245 153.361 245.833 153.938 245.033C154.514 244.234 154.788 243.228 154.767 242.02C154.741 240.808 154.426 239.819 153.82 239.049L153.816 239.053Z"
                                    fill="#BBBDBF" />
                                <path
                                    d="M142.39 247.133L142.529 245.387H142.487C142.104 245.913 141.628 246.329 141.056 246.628C140.488 246.931 139.869 247.053 139.204 247.003C138.96 246.982 138.741 246.923 138.544 246.826L138.67 245.239H138.729C138.927 245.328 139.167 245.382 139.453 245.403C140.294 245.471 141.035 245.235 141.679 244.692C142.323 244.149 142.68 243.405 142.756 242.458L143.223 236.625L144.869 236.755L144.027 247.263L142.382 247.133H142.39Z"
                                    fill="#BBBDBF" />
                                <path
                                    d="M134.9 246.3L135.173 244.566L135.131 244.557C134.71 245.054 134.201 245.433 133.608 245.689C133.019 245.946 132.392 246.022 131.735 245.917C131.495 245.879 131.276 245.803 131.091 245.689L131.339 244.12L131.398 244.128C131.588 244.225 131.823 244.301 132.105 244.343C132.939 244.473 133.696 244.296 134.378 243.804C135.06 243.312 135.476 242.6 135.628 241.658L136.545 235.88L138.178 236.137L136.528 246.548L134.895 246.291L134.9 246.3Z"
                                    fill="#BBBDBF" />
                                <path
                                    d="M127.712 233.784C129.227 234.176 130.296 234.992 130.923 236.242C131.55 237.492 131.663 238.885 131.264 240.425C130.872 241.94 130.094 243.097 128.928 243.897C127.762 244.696 126.466 244.915 125.044 244.549C123.542 244.162 122.519 243.341 121.972 242.083C121.425 240.825 121.374 239.331 121.825 237.593L129.723 239.63C129.934 238.531 129.841 237.572 129.446 236.747C129.046 235.922 128.356 235.384 127.367 235.127C125.839 234.735 124.72 235.19 124.004 236.49L122.443 236.086C122.961 235.055 123.68 234.34 124.598 233.936C125.515 233.532 126.555 233.481 127.712 233.78V233.784ZM123.462 241.868C123.828 242.58 124.463 243.051 125.372 243.287C126.281 243.522 127.081 243.404 127.767 242.937C128.457 242.47 128.991 241.763 129.374 240.825L123.234 239.243C123.024 240.282 123.1 241.157 123.462 241.868Z"
                                    fill="#BBBDBF" />
                                <path
                                    d="M117.818 230.561C119.249 231.121 120.204 232.064 120.688 233.389C121.172 234.715 121.126 236.112 120.549 237.581C119.977 239.049 119.064 240.11 117.81 240.758C116.556 241.406 115.213 241.452 113.783 240.893C112.629 240.442 111.809 239.769 111.312 238.869C110.816 237.968 110.685 236.958 110.921 235.839L112.478 236.445C112.331 237.16 112.411 237.795 112.718 238.355C113.025 238.915 113.547 239.336 114.279 239.622C115.293 240.017 116.219 239.954 117.057 239.437C117.894 238.919 118.534 238.094 118.971 236.966C119.413 235.839 119.497 234.803 119.232 233.861C118.967 232.918 118.327 232.249 117.313 231.853C116.526 231.546 115.819 231.517 115.184 231.757C114.548 231.996 114.052 232.493 113.686 233.242L112.167 232.649C112.726 231.513 113.501 230.759 114.489 230.393C115.478 230.027 116.585 230.086 117.814 230.566L117.818 230.561Z"
                                    fill="#BBBDBF" />
                                <path
                                    d="M108.909 237.079L108.303 238.283L106.936 237.597L105.442 240.564L103.965 239.823L105.459 236.852L103.636 235.935L104.242 234.731L106.065 235.649L109.141 229.53C109.435 228.945 109.263 228.495 108.632 228.179C108.366 228.044 108.08 227.956 107.786 227.914L107.731 227.884L108.371 226.609C108.812 226.727 109.229 226.883 109.62 227.076C111.005 227.771 111.392 228.726 110.782 229.942L107.542 236.389L108.909 237.075V237.079Z"
                                    fill="#BBBDBF" />
                                <path
                                    d="M100.813 236.629L99.7942 238.397L98.3634 237.572L99.3818 235.804L100.813 236.629ZM107.07 225.759L101.814 234.895L100.383 234.071L105.639 224.935L107.07 225.759Z"
                                    fill="#BBBDBF" />
                                <path
                                    d="M96.4234 220.424C97.7869 220.079 99.0999 220.344 100.362 221.219C101.625 222.094 102.336 223.231 102.496 224.636C102.656 226.038 102.29 227.388 101.389 228.684C100.493 229.981 99.3566 230.797 97.9889 231.138C96.6212 231.479 95.304 231.214 94.0416 230.338C92.7791 229.463 92.0721 228.327 91.9164 226.93C91.7607 225.533 92.131 224.186 93.0316 222.89C93.9321 221.594 95.06 220.773 96.4234 220.428V220.424ZM100.977 224.758C100.935 223.778 100.468 222.982 99.5754 222.36C98.6832 221.741 97.7701 221.585 96.8485 221.892C95.9226 222.204 95.1147 222.852 94.4245 223.849C93.7259 224.855 93.3977 225.848 93.4398 226.824C93.4819 227.805 93.9406 228.6 94.8243 229.211C95.7164 229.829 96.6338 229.985 97.5681 229.673C98.5023 229.362 99.3145 228.71 100.005 227.717C100.695 226.723 101.019 225.735 100.977 224.754V224.758Z"
                                    fill="#BBBDBF" />
                                <path
                                    d="M86.8496 224.539L87.7712 223.504L87.7418 223.479C86.4078 223.748 85.2168 223.411 84.1606 222.473C83.3273 221.732 82.8728 220.937 82.7929 220.083C82.7129 219.228 83.037 218.399 83.7608 217.587L88.6802 212.058L89.9132 213.156L85.0864 218.576C84.6361 219.085 84.4425 219.616 84.5056 220.175C84.573 220.735 84.8844 221.265 85.4441 221.762C86.0753 222.322 86.7739 222.578 87.5398 222.536C88.3057 222.49 88.9748 222.149 89.5471 221.509L93.8606 216.666L95.0936 217.764L88.0826 225.638L86.8496 224.539Z"
                                    fill="#BBBDBF" />
                                <path
                                    d="M84.9939 207.584C85.9534 208.657 86.4584 209.705 86.5089 210.727C86.5594 211.75 86.1638 212.693 85.3264 213.551L84.1986 212.289C85.238 211.106 85.1496 209.835 83.9334 208.476C83.3822 207.857 82.8519 207.508 82.3469 207.42C81.8419 207.336 81.3959 207.462 81.0129 207.807C80.5963 208.177 80.4322 208.594 80.5121 209.048C80.5921 209.503 80.8993 210.197 81.438 211.123C81.6568 211.51 81.8293 211.817 81.9514 212.045C82.0734 212.272 82.2081 212.558 82.3596 212.899C82.5111 213.24 82.5952 213.53 82.6205 213.774C82.6457 214.018 82.6499 214.283 82.6331 214.57C82.6163 214.856 82.5279 215.133 82.3638 215.399C82.1997 215.664 81.9808 215.92 81.7073 216.164C81.0382 216.762 80.2933 216.989 79.4685 216.842C78.6437 216.695 77.8273 216.173 77.0193 215.268C75.3528 213.404 75.2518 211.641 76.7205 209.983L77.8483 211.245C77.3854 211.767 77.1666 212.284 77.1918 212.789C77.2171 213.294 77.4906 213.842 78.0167 214.431C78.4964 214.969 78.9551 215.272 79.397 215.344C79.8346 215.415 80.2218 215.302 80.5584 215.003C80.9414 214.658 81.0761 214.262 80.9624 213.82C80.8488 213.374 80.5121 212.68 79.9567 211.737C79.6242 211.161 79.3759 210.694 79.2118 210.34C79.0477 209.987 78.9214 209.574 78.8246 209.111C78.7278 208.649 78.7657 208.215 78.9341 207.811C79.1024 207.407 79.4012 207.007 79.8388 206.62C80.6089 205.93 81.4506 205.686 82.368 205.888C83.2854 206.086 84.1607 206.654 84.9981 207.584H84.9939Z"
                                    fill="#BBBDBF" />
                                <path
                                    d="M79.2203 201.099L66.9701 208.998L63.6793 203.893C62.8544 202.614 62.623 201.389 62.9849 200.22C63.271 199.26 63.8728 198.486 64.786 197.892C65.9265 197.156 67.029 196.916 68.0811 197.173C69.1373 197.429 70.0884 198.216 70.9343 199.529L73.0889 202.871L78.2314 199.555L79.2245 201.099H79.2203ZM67.311 206.595L71.8348 203.679L69.756 200.455C69.2089 199.609 68.5987 199.1 67.9254 198.932C67.2478 198.759 66.5493 198.907 65.8297 199.374C65.0974 199.845 64.6808 200.417 64.5714 201.095C64.4662 201.768 64.664 202.5 65.1732 203.292L67.3068 206.599L67.311 206.595Z"
                                    fill="#BBBDBF" />
                                <path
                                    d="M62.9427 194.429L64.5082 193.642L64.4914 193.604C63.8391 193.549 63.2373 193.36 62.686 193.028C62.1305 192.699 61.7055 192.236 61.4067 191.639C61.2973 191.42 61.2342 191.201 61.2131 190.982L62.6355 190.267L62.665 190.322C62.6944 190.532 62.7744 190.768 62.9048 191.024C63.2836 191.778 63.8727 192.287 64.6681 192.556C65.4635 192.826 66.2883 192.746 67.1383 192.321L72.365 189.69L73.1056 191.168L63.6876 195.902L62.9469 194.425L62.9427 194.429Z"
                                    fill="#BBBDBF" />
                                <path
                                    d="M68.9057 181.287C69.4738 182.743 69.4317 184.09 68.7795 185.327C68.1314 186.565 67.0625 187.469 65.5812 188.046C64.1251 188.614 62.7322 188.656 61.3982 188.172C60.0684 187.692 59.1342 186.767 58.6039 185.399C58.0442 183.955 58.1116 182.642 58.8143 181.468C59.5171 180.294 60.7038 179.377 62.3745 178.729L65.3287 186.329C66.3429 185.862 67.0709 185.226 67.5086 184.423C67.9462 183.619 67.9799 182.739 67.6138 181.792C67.0415 180.324 66.0189 179.68 64.5418 179.857L63.9568 178.354C65.0973 178.173 66.0988 178.337 66.9615 178.851C67.8242 179.36 68.4723 180.172 68.9057 181.287ZM59.8622 182.55C59.4961 183.261 59.4835 184.052 59.8243 184.928C60.1652 185.803 60.7249 186.384 61.5076 186.67C62.2904 186.956 63.1741 186.981 64.163 186.741L61.8653 180.833C60.8974 181.266 60.2283 181.839 59.8664 182.55H59.8622Z"
                                    fill="#BBBDBF" />
                                <path
                                    d="M66.0021 173.434L56.765 179.708L56.3105 177.996L62.2147 174.17L64.1842 172.929L64.1758 172.891C63.271 172.866 62.4925 172.832 61.8486 172.79L54.8166 172.361L54.3748 170.707L65.535 171.667L66.0063 173.438L66.0021 173.434Z"
                                    fill="#BBBDBF" />
                                <path
                                    d="M52.1737 169.411L50.1706 169.785L49.8634 168.161L51.8665 167.787L52.1695 169.411H52.1737ZM64.4955 167.092L54.1348 169.041L53.8276 167.416L64.1883 165.468L64.4955 167.092Z"
                                    fill="#BBBDBF" />
                                <path
                                    d="M63.5865 159.046C63.7506 160.599 63.3551 161.886 62.3998 162.909C61.4487 163.932 60.182 164.525 58.5997 164.689C57.0469 164.853 55.6876 164.525 54.5304 163.709C53.3731 162.892 52.7166 161.756 52.5651 160.296C52.4052 158.756 52.8176 157.51 53.8065 156.559C54.7955 155.608 56.18 155.04 57.9643 154.854L58.8101 162.968C59.9127 162.783 60.7796 162.362 61.4151 161.701C62.0505 161.041 62.3156 160.203 62.2104 159.189C62.0463 157.619 61.2299 156.727 59.757 156.513L59.5887 154.909C60.7375 155.035 61.6591 155.46 62.3535 156.18C63.0521 156.9 63.4603 157.855 63.5865 159.046ZM54.5262 157.876C53.9875 158.465 53.7645 159.227 53.8613 160.157C53.958 161.091 54.3452 161.798 55.0269 162.282C55.7045 162.766 56.5545 163.023 57.5687 163.052L56.9122 156.744C55.8644 156.908 55.069 157.287 54.5304 157.876H54.5262Z"
                                    fill="#BBBDBF" />
                                <path
                                    d="M62.7618 151.122L52.1107 154.093L52.1738 152.322L58.7387 150.697L61.0196 150.205V150.163C60.1064 149.927 59.3699 149.725 58.8187 149.553L52.3422 147.55L52.4053 145.816L59.008 144.334L61.2468 143.901V143.859C60.3336 143.611 59.5846 143.388 59.008 143.19L52.5778 141.006L52.6367 139.293L63.0479 143.106L62.989 144.797L56.5504 146.325L54.3327 146.758V146.8C55.208 147.024 55.936 147.226 56.5125 147.406L62.8291 149.405L62.7702 151.118L62.7618 151.122Z"
                                    fill="#BBBDBF" />
                                <path
                                    d="M63.7928 136.372C62.9637 136.149 62.261 135.842 61.676 135.459C61.0911 135.072 60.6029 134.525 60.1989 133.818C59.7991 133.111 59.5172 132.56 59.3615 132.172C59.2058 131.781 58.9743 131.108 58.6671 130.152C58.6461 130.119 58.6334 130.098 58.6292 130.081C58.6292 130.068 58.6208 130.043 58.6124 130.014C58.604 129.984 58.5956 129.959 58.5872 129.934C58.5787 129.913 58.5703 129.883 58.5619 129.854C58.1832 128.671 57.817 127.813 57.472 127.274C57.1227 126.74 56.5714 126.386 55.8139 126.222C54.9765 126.037 54.24 126.159 53.6046 126.58C52.9691 127.005 52.5525 127.665 52.3505 128.57C52.1485 129.488 52.2748 130.27 52.7293 130.927C53.1711 131.566 54.0254 132.025 55.2879 132.303L54.9007 134.054C53.2932 133.7 52.157 132.997 51.4836 131.945C50.8229 130.897 50.6588 129.622 50.9913 128.12C51.2943 126.752 51.9255 125.738 52.8934 125.073C53.8613 124.408 54.9554 124.21 56.1758 124.48C56.6682 124.589 57.1016 124.762 57.4804 124.997C57.8591 125.233 58.1579 125.46 58.3767 125.675C58.5956 125.89 58.8186 126.247 59.0501 126.744C59.2815 127.24 59.433 127.602 59.5088 127.838C59.5845 128.074 59.7192 128.52 59.9212 129.193C59.9632 129.328 59.9927 129.433 60.018 129.509C60.2368 130.224 60.4304 130.822 60.6071 131.297C60.7797 131.773 61.0532 132.29 61.4235 132.846C61.7938 133.401 62.202 133.788 62.6397 134.011L64.2809 126.563L65.8758 126.912L63.7928 136.368V136.372Z"
                                    fill="#BBBDBF" />
                                <path
                                    d="M66.3809 125.064L52.7041 120.019L53.3395 118.298L60.1317 120.802L55.8224 111.564L56.6178 109.401L60.0517 116.947L70.4671 113.984L69.7265 115.991L60.7881 118.542L62.1769 121.555L67.0163 123.339L66.3809 125.06V125.064Z"
                                    fill="#BBBDBF" />
                                <path
                                    d="M38.5349 234.328C39.6291 235.809 39.911 237.392 39.3808 239.075C38.8505 240.754 37.6091 242.315 35.6523 243.759C33.6828 245.21 31.8101 245.926 30.0385 245.905C28.2668 245.884 26.8444 245.152 25.7797 243.704C24.7108 242.256 24.4331 240.691 24.9423 239.008C25.4515 237.324 26.6929 235.75 28.675 234.29C30.6445 232.838 32.5045 232.106 34.2509 232.089C35.9973 232.072 37.4281 232.821 38.5391 234.328H38.5349ZM37.6428 238.654C38.1393 237.455 38.0005 236.327 37.2219 235.271C36.4434 234.214 35.4166 233.747 34.1457 233.873C32.8748 233.995 31.4314 234.652 29.8154 235.843C28.2247 237.013 27.1769 238.204 26.6761 239.407C26.1711 240.611 26.3015 241.73 27.0632 242.761C27.8418 243.818 28.8728 244.289 30.1605 244.171C31.4482 244.053 32.9001 243.401 34.5118 242.214C36.1025 241.04 37.1462 239.858 37.6428 238.654Z"
                                    fill="#BBBDBF" />
                                <path
                                    d="M29.626 222.797L26.634 225.002L30.8717 230.751L29.5377 231.735L17.0981 231.592L16.2312 230.418L24.3657 224.422L22.8844 222.41L24.0754 221.53L25.5567 223.542L28.5487 221.337L29.626 222.797ZM28.5614 230.225L28.6161 230.187L25.443 225.882L19.7283 230.094L19.7535 230.128L28.5614 230.229V230.225Z"
                                    fill="#BBBDBF" />
                            </g>
                            <g class="stage-5 rendering-project__nav-item count-5">
                                <path
                                    d="M44.052 160.266L29.4957 161.02L28.9823 151.143L30.5898 151.059L31.0065 159.101L35.5472 158.865L35.1979 152.165L36.7465 152.085L37.0958 158.785L43.9594 158.427L44.0562 160.258L44.052 160.266Z"
                                    fill="#BBBDBF" />
                                <path
                                    d="M31.1412 148.757L29.1044 148.719L29.1338 147.069L31.1706 147.107L31.1412 148.757ZM43.6775 148.992L33.1401 148.795L33.1695 147.145L43.707 147.343L43.6775 148.992Z"
                                    fill="#BBBDBF" />
                                <path
                                    d="M33.3379 142.781L34.7182 142.899V142.857C33.7082 141.952 33.2622 140.795 33.38 139.385C33.4726 138.274 33.8387 137.432 34.4741 136.86C35.1096 136.288 35.9681 136.048 37.0538 136.14L44.4266 136.767L44.2878 138.413L37.0538 137.798C36.3763 137.74 35.8334 137.908 35.4252 138.295C35.017 138.682 34.7813 139.25 34.7182 139.995C34.6467 140.837 34.8571 141.548 35.3537 142.137C35.8502 142.726 36.5235 143.055 37.3778 143.126L43.8375 143.677L43.6986 145.323L33.1948 144.431L33.3337 142.785L33.3379 142.781Z"
                                    fill="#BBBDBF" />
                                <path
                                    d="M46.2783 126.816C46.0889 127.847 45.4661 128.343 44.4056 128.318V128.339C45.3398 129.395 45.6765 130.645 45.4114 132.089C45.222 133.12 44.8222 133.915 44.2036 134.479C43.5892 135.043 42.8149 135.241 41.8765 135.068C41.3967 134.98 40.9927 134.824 40.6645 134.605C40.3404 134.386 40.0879 134.138 39.9112 133.856C39.7345 133.574 39.604 133.208 39.5114 132.758C39.423 132.307 39.3683 131.878 39.3515 131.474C39.3347 131.07 39.3347 130.561 39.3515 129.942C39.3683 129.547 39.3768 129.261 39.3725 129.084C39.3725 128.911 39.3557 128.684 39.3305 128.402C39.3052 128.12 39.2589 127.918 39.1832 127.796C39.1074 127.674 39.0022 127.548 38.8591 127.426C38.7161 127.304 38.5393 127.224 38.3247 127.182C37.7355 127.072 37.2474 127.194 36.8602 127.544C36.4731 127.893 36.2079 128.436 36.0733 129.172C35.7661 130.843 36.3679 131.844 37.8828 132.181L37.5967 133.747C36.5446 133.528 35.7619 133.006 35.2527 132.185C34.7393 131.365 34.6046 130.292 34.8487 128.97C35.3158 126.416 36.6498 125.343 38.8423 125.742L43.7744 126.647C44.2289 126.731 44.5655 126.715 44.7801 126.593C44.9948 126.475 45.0958 126.193 45.0789 125.747L45.0916 125.688L46.2741 125.907C46.333 126.193 46.333 126.496 46.2741 126.82L46.2783 126.816ZM44.2373 131.499C44.4224 130.498 44.2752 129.669 43.7912 129.012C43.3115 128.356 42.7223 127.964 42.028 127.838L40.2647 127.514C40.4835 128.065 40.5887 128.899 40.5929 130.022C40.6014 130.439 40.6056 130.763 40.6098 130.999C40.614 131.234 40.6476 131.512 40.7066 131.823C40.7655 132.139 40.8496 132.383 40.9548 132.551C41.0601 132.724 41.2158 132.884 41.4178 133.031C41.6198 133.178 41.868 133.279 42.1584 133.334C43.282 133.54 43.9722 132.93 44.2373 131.499Z"
                                    fill="#BBBDBF" />
                                <path d="M46.7033 124.917L32.572 121.34L32.976 119.741L47.1073 123.318L46.7033 124.917Z"
                                    fill="#BBBDBF" />
                                <path
                                    d="M48.4833 118.091L34.8275 112.986L37.2094 106.607C37.6555 105.411 38.3624 104.566 39.3303 104.077C40.2982 103.589 41.3377 103.556 42.4613 103.972C44.2077 104.625 45.0367 105.837 44.9568 107.604L45.0157 107.625C45.508 107.04 46.0677 106.703 46.6906 106.607C47.3134 106.514 48.1592 106.628 49.2281 106.956C51.0208 107.482 52.0729 107.633 52.3843 107.419L52.4601 107.448L51.7657 109.3C51.5974 109.397 51.3196 109.405 50.9283 109.325C50.5369 109.245 49.7373 109.022 48.5253 108.656C47.507 108.349 46.7158 108.332 46.1477 108.606C45.5796 108.879 45.1251 109.481 44.7758 110.411L43.3534 114.211L49.1229 116.366L48.4791 118.087L48.4833 118.091ZM36.9611 111.825L41.9647 113.693L43.4797 109.645C43.8332 108.702 43.8794 107.907 43.6185 107.259C43.3618 106.611 42.8358 106.14 42.0447 105.845C41.1904 105.525 40.4792 105.508 39.9111 105.786C39.343 106.068 38.8758 106.699 38.5097 107.68L36.9611 111.825Z"
                                    fill="#BBBDBF" />
                                <path
                                    d="M55.3387 102.449C54.6317 103.846 53.6049 104.713 52.2498 105.058C50.8948 105.403 49.5103 105.214 48.0879 104.498C46.6949 103.791 45.7313 102.786 45.1968 101.473C44.6624 100.16 44.7297 98.8509 45.3904 97.5379C46.089 96.1534 47.1116 95.3328 48.454 95.0677C49.7964 94.8025 51.2693 95.0761 52.8727 95.8841L49.1946 103.164C50.2215 103.606 51.1767 103.72 52.0689 103.509C52.961 103.299 53.6343 102.735 54.0973 101.826C54.8084 100.421 54.6022 99.2254 53.4828 98.2491L54.2109 96.8099C55.1072 97.5379 55.6543 98.3922 55.8521 99.3727C56.0499 100.357 55.8773 101.38 55.3387 102.449ZM48.353 96.5658C47.5787 96.7678 46.9811 97.2896 46.5603 98.127C46.1395 98.9645 46.0805 99.7683 46.392 100.543C46.7034 101.317 47.2757 101.99 48.1131 102.567L50.9747 96.9067C50.0026 96.4774 49.1315 96.3638 48.3572 96.5658H48.353Z"
                                    fill="#BBBDBF" />
                                <path
                                    d="M60.2959 93.7759C59.5257 94.9963 58.6588 95.7706 57.6867 96.0988C56.7188 96.4271 55.7047 96.3092 54.6484 95.7369L55.549 94.3061C56.9713 94.9794 58.1707 94.546 59.1428 93.0016C59.5847 92.2988 59.7782 91.6928 59.7193 91.1836C59.6646 90.6744 59.4163 90.283 58.9787 90.0053C58.5073 89.7065 58.0613 89.6602 57.6447 89.8664C57.228 90.0684 56.6473 90.5566 55.9067 91.3267C55.5952 91.6423 55.347 91.8906 55.1576 92.0715C54.9724 92.2525 54.7368 92.4587 54.4506 92.6986C54.1644 92.9384 53.9077 93.1026 53.6847 93.1909C53.4575 93.2793 53.205 93.3593 52.923 93.4224C52.6411 93.4855 52.3507 93.4771 52.0519 93.3929C51.7531 93.3088 51.4459 93.1657 51.1345 92.9721C50.377 92.4924 49.952 91.8401 49.8678 91.0068C49.7837 90.1736 50.0614 89.2436 50.7053 88.221C52.0393 86.1042 53.7057 85.5235 55.7047 86.4788L54.8041 87.9096C54.1729 87.6108 53.6174 87.5393 53.1376 87.7034C52.6579 87.8675 52.2076 88.2841 51.7868 88.949C51.4038 89.5592 51.2355 90.0852 51.286 90.5271C51.3365 90.969 51.5511 91.3098 51.9299 91.5497C52.3675 91.8275 52.7841 91.8485 53.1797 91.6128C53.5753 91.3814 54.1518 90.868 54.9093 90.0768C55.3722 89.5971 55.7509 89.231 56.0497 88.9743C56.3485 88.7218 56.7062 88.4819 57.1228 88.2673C57.5437 88.0485 57.9687 87.9643 58.4021 88.0148C58.8356 88.0653 59.3027 88.2462 59.7951 88.5577C60.6704 89.1089 61.1375 89.8538 61.1964 90.788C61.2553 91.7265 60.9523 92.7238 60.2874 93.7801L60.2959 93.7759Z"
                                    fill="#BBBDBF" />
                                <path
                                    d="M68.0854 82.427L67.0796 83.7357L65.9308 82.852L65.9055 82.8857C66.2969 84.2323 66.0949 85.4148 65.3079 86.4374C64.6472 87.3001 63.8729 87.7967 62.9934 87.9271C62.1139 88.0576 61.2428 87.7925 60.3801 87.1276L54.5938 82.6795L55.5995 81.3707L61.3564 85.7936C61.8951 86.206 62.4421 86.3659 62.9976 86.2691C63.5531 86.1723 64.0581 85.8272 64.5126 85.2339C65.0176 84.5774 65.2027 83.8788 65.0681 83.1382C64.9334 82.4017 64.5294 81.7747 63.8603 81.2613L58.7178 77.3097L59.7236 76.001L68.0812 82.4228L68.0854 82.427Z"
                                    fill="#BBBDBF" />
                                <path
                                    d="M69.4824 80.9031L58.5367 71.2746L59.6267 70.0332L70.5723 79.6617L69.4824 80.9031Z"
                                    fill="#BBBDBF" />
                                <path
                                    d="M64.9208 72.1673L63.9529 71.2331L65.0133 70.1347L62.623 67.8244L63.7719 66.6377L66.1622 68.948L67.5804 67.4836L68.5483 68.4178L67.1301 69.8822L72.0579 74.6418C72.5293 75.0963 73.009 75.0668 73.4971 74.5576C73.7034 74.343 73.8759 74.0989 74.0021 73.8296L74.0442 73.7875L75.071 74.7806C74.827 75.1678 74.5534 75.5213 74.2546 75.8327C73.1773 76.9479 72.1505 77.0321 71.1742 76.0894L65.9854 71.0732L64.925 72.1715L64.9208 72.1673Z"
                                    fill="#BBBDBF" />
                                <path
                                    d="M30.0638 72.3744C28.9865 73.8725 27.5683 74.6258 25.8093 74.6384C24.046 74.651 22.1776 73.9482 20.2039 72.5301C18.2176 71.1035 16.9593 69.5422 16.4375 67.8463C15.9115 66.1546 16.1724 64.5765 17.2245 63.1162C18.2723 61.656 19.6779 60.9111 21.4369 60.8732C23.196 60.8396 25.0728 61.5423 27.0717 62.9773C29.058 64.4039 30.3289 65.9484 30.8802 67.6064C31.4315 69.2645 31.1622 70.851 30.068 72.3744H30.0638ZM25.6746 72.8541C26.9707 72.9593 28.0018 72.4796 28.7677 71.4149C29.5336 70.3502 29.664 69.2308 29.1548 68.0567C28.6456 66.8826 27.5767 65.7127 25.9481 64.5428C24.3448 63.3898 22.893 62.7585 21.5926 62.6491C20.2923 62.5397 19.2655 63.0068 18.5206 64.0462C17.7757 65.0857 17.6242 66.2387 18.1334 67.4297C18.6384 68.6206 19.7073 69.7989 21.3359 70.9688C22.9392 72.1219 24.3911 72.7531 25.683 72.8541H25.6746Z"
                                    fill="#BBBDBF" />
                                <path
                                    d="M37.6133 61.87C36.6917 63.1493 35.5765 63.9573 34.2636 64.294C32.9506 64.6306 31.7092 64.416 30.5393 63.6459L31.6124 62.1562C32.4582 62.6191 33.2915 62.7496 34.1163 62.5391C34.9369 62.3287 35.6565 61.7943 36.2793 60.9358C36.9064 60.0605 37.1378 59.1683 36.9737 58.2467C36.8096 57.3293 36.2751 56.5466 35.3788 55.9027C34.4824 55.2589 33.5734 55.019 32.656 55.1831C31.7386 55.3515 30.9769 55.8522 30.3752 56.6897C29.4788 57.9353 29.2431 59.1599 29.664 60.3719L28.6203 61.8279L22.9939 55.7134L27.7029 49.1611L29.0496 50.129L25.1022 55.6208L28.2205 59.0884L28.2458 59.0505C28.0775 57.8217 28.4057 56.6308 29.2305 55.4819C30.0553 54.3331 31.1537 53.6303 32.5214 53.3694C33.889 53.1085 35.2231 53.4493 36.5276 54.3836C37.8322 55.3178 38.5602 56.4709 38.7411 57.8554C38.9263 59.2399 38.5518 60.5781 37.626 61.87H37.6133Z"
                                    fill="#BBBDBF" />
                            </g>
                        </g>
                        <defs>
                            <clipPath id="clip0_868_1062">
                                <rect width="299" height="295.692" fill="white" />
                            </clipPath>
                        </defs>
                    </svg>