<svg width="114" height="72" viewBox="0 0 114 72" fill="none" xmlns="http://www.w3.org/2000/svg">
<path d="M18.15 37L9.65 25.3V37H1.1V0H9.65V20.45L18.1 9.1H28.65L17.05 23.1L28.75 37H18.15Z" fill="black"/>
<path d="M40.5582 13.75C41.5582 12.2167 42.8082 11.0167 44.3082 10.15C45.8082 9.25 47.4749 8.8 49.3082 8.8V17.85H46.9582C44.8249 17.85 43.2249 18.3167 42.1582 19.25C41.0915 20.15 40.5582 21.75 40.5582 24.05V37H32.0082V9.1H40.5582V13.75Z" fill="black"/>
<path d="M79.6949 22.6C79.6949 23.4 79.6449 24.2333 79.5449 25.1H60.1949C60.3283 26.8333 60.8783 28.1667 61.8449 29.1C62.8449 30 64.0616 30.45 65.4949 30.45C67.6283 30.45 69.1116 29.55 69.9449 27.75H79.0449C78.5783 29.5833 77.7283 31.2333 76.4949 32.7C75.2949 34.1667 73.7783 35.3167 71.9449 36.15C70.1116 36.9833 68.0616 37.4 65.7949 37.4C63.0616 37.4 60.6283 36.8167 58.4949 35.65C56.3616 34.4833 54.6949 32.8167 53.4949 30.65C52.2949 28.4833 51.6949 25.95 51.6949 23.05C51.6949 20.15 52.2783 17.6167 53.4449 15.45C54.6449 13.2833 56.3116 11.6167 58.4449 10.45C60.5783 9.28333 63.0283 8.7 65.7949 8.7C68.4949 8.7 70.8949 9.26667 72.9949 10.4C75.0949 11.5333 76.7283 13.15 77.8949 15.25C79.0949 17.35 79.6949 19.8 79.6949 22.6ZM70.9449 20.35C70.9449 18.8833 70.4449 17.7167 69.4449 16.85C68.4449 15.9833 67.1949 15.55 65.6949 15.55C64.2616 15.55 63.0449 15.9667 62.0449 16.8C61.0783 17.6333 60.4783 18.8167 60.2449 20.35H70.9449Z" fill="black"/>
<path d="M82.5055 23C82.5055 20.1333 83.0388 17.6167 84.1055 15.45C85.2055 13.2833 86.6888 11.6167 88.5555 10.45C90.4221 9.28333 92.5055 8.7 94.8055 8.7C96.7721 8.7 98.4888 9.1 99.9555 9.9C101.455 10.7 102.605 11.75 103.405 13.05V9.1H111.955V37H103.405V33.05C102.572 34.35 101.405 35.4 99.9055 36.2C98.4388 37 96.7221 37.4 94.7555 37.4C92.4888 37.4 90.4221 36.8167 88.5555 35.65C86.6888 34.45 85.2055 32.7667 84.1055 30.6C83.0388 28.4 82.5055 25.8667 82.5055 23ZM103.405 23.05C103.405 20.9167 102.805 19.2333 101.605 18C100.439 16.7667 99.0055 16.15 97.3055 16.15C95.6055 16.15 94.1555 16.7667 92.9555 18C91.7888 19.2 91.2055 20.8667 91.2055 23C91.2055 25.1333 91.7888 26.8333 92.9555 28.1C94.1555 29.3333 95.6055 29.95 97.3055 29.95C99.0055 29.95 100.439 29.3333 101.605 28.1C102.805 26.8667 103.405 25.1833 103.405 23.05Z" fill="black"/>
<path d="M33.65 63.75V71H29.3C26.2 71 23.7833 70.25 22.05 68.75C20.3167 67.2167 19.45 64.7333 19.45 61.3V50.2H16.05V43.1H19.45V36.3H28V43.1H33.6V50.2H28V61.4C28 62.2333 28.2 62.8333 28.6 63.2C29 63.5667 29.6667 63.75 30.6 63.75H33.65Z" fill="black"/>
<path d="M36.7125 57C36.7125 54.1333 37.2458 51.6167 38.3125 49.45C39.4125 47.2833 40.8958 45.6167 42.7625 44.45C44.6292 43.2833 46.7125 42.7 49.0125 42.7C50.9792 42.7 52.6958 43.1 54.1625 43.9C55.6625 44.7 56.8125 45.75 57.6125 47.05V43.1H66.1625V71H57.6125V67.05C56.7792 68.35 55.6125 69.4 54.1125 70.2C52.6458 71 50.9292 71.4 48.9625 71.4C46.6958 71.4 44.6292 70.8167 42.7625 69.65C40.8958 68.45 39.4125 66.7667 38.3125 64.6C37.2458 62.4 36.7125 59.8667 36.7125 57ZM57.6125 57.05C57.6125 54.9167 57.0125 53.2333 55.8125 52C54.6458 50.7667 53.2125 50.15 51.5125 50.15C49.8125 50.15 48.3625 50.7667 47.1625 52C45.9958 53.2 45.4125 54.8667 45.4125 57C45.4125 59.1333 45.9958 60.8333 47.1625 62.1C48.3625 63.3333 49.8125 63.95 51.5125 63.95C53.2125 63.95 54.6458 63.3333 55.8125 62.1C57.0125 60.8667 57.6125 59.1833 57.6125 57.05Z" fill="black"/>
<path d="M80.898 34V71H72.348V34H80.898Z" fill="black"/>
<path d="M113.394 56.6C113.394 57.4 113.344 58.2333 113.244 59.1H93.8941C94.0275 60.8333 94.5775 62.1667 95.5441 63.1C96.5441 64 97.7608 64.45 99.1941 64.45C101.327 64.45 102.811 63.55 103.644 61.75H112.744C112.277 63.5833 111.427 65.2333 110.194 66.7C108.994 68.1667 107.477 69.3167 105.644 70.15C103.811 70.9833 101.761 71.4 99.4941 71.4C96.7608 71.4 94.3275 70.8167 92.1941 69.65C90.0608 68.4833 88.3941 66.8167 87.1941 64.65C85.9941 62.4833 85.3941 59.95 85.3941 57.05C85.3941 54.15 85.9775 51.6167 87.1441 49.45C88.3441 47.2833 90.0108 45.6167 92.1441 44.45C94.2775 43.2833 96.7275 42.7 99.4941 42.7C102.194 42.7 104.594 43.2667 106.694 44.4C108.794 45.5333 110.427 47.15 111.594 49.25C112.794 51.35 113.394 53.8 113.394 56.6ZM104.644 54.35C104.644 52.8833 104.144 51.7167 103.144 50.85C102.144 49.9833 100.894 49.55 99.3941 49.55C97.9608 49.55 96.7441 49.9667 95.7441 50.8C94.7775 51.6333 94.1775 52.8167 93.9441 54.35H104.644Z" fill="black"/>
<path d="M15 57.5C15 61.6421 11.6421 65 7.5 65C3.35786 65 0 61.6421 0 57.5C0 53.3579 3.35786 50 7.5 50C11.6421 50 15 53.3579 15 57.5Z" fill="#0061FF"/>
</svg>
