<svg width="126" height="81" viewBox="0 0 126 81" fill="none" xmlns="http://www.w3.org/2000/svg">
<path d="M20.1493 41.4725L10.7129 28.3582V41.4725H1.22095V0H10.7129V22.922L20.0938 10.2H31.8061L18.9281 25.8923L31.9171 41.4725H20.1493ZM45.0262 15.4121C46.1364 13.6934 47.5241 12.3484 49.1894 11.3769C50.8546 10.3681 52.705 9.86373 54.7402 9.86373V20.0077H52.1313C49.763 20.0077 47.9867 20.5308 46.8025 21.5769C45.6183 22.5857 45.0262 24.3791 45.0262 26.9571V41.4725H35.5343V10.2H45.0262V15.4121ZM88.4746 25.3319C88.4746 26.2286 88.4191 27.1626 88.3081 28.1341H66.8263C66.9744 30.0769 67.585 31.5715 68.6581 32.6176C69.7683 33.6264 71.119 34.1308 72.7102 34.1308C75.0786 34.1308 76.7254 33.122 77.6505 31.1044H87.753C87.235 33.1593 86.2914 35.0088 84.9221 36.6527C83.5899 38.2967 81.9062 39.5858 79.8708 40.5198C77.8355 41.4538 75.5597 41.9209 73.0433 41.9209C70.0088 41.9209 67.3075 41.2671 64.939 39.9593C62.5707 38.6516 60.7204 36.7836 59.3882 34.3549C58.056 31.9263 57.3899 29.0868 57.3899 25.8363C57.3899 22.5857 58.0375 19.7462 59.3327 17.3176C60.6649 14.889 62.5152 13.0209 64.8835 11.7132C67.2519 10.4055 69.9719 9.75165 73.0433 9.75165C76.0407 9.75165 78.7051 10.3868 81.0365 11.6571C83.3678 12.9274 85.1812 14.7396 86.4763 17.0934C87.8085 19.4473 88.4746 22.1934 88.4746 25.3319ZM78.7606 22.8099C78.7606 21.1659 78.2055 19.8583 77.0954 18.8868C75.9852 17.9153 74.5975 17.4297 72.9322 17.4297C71.341 17.4297 69.9903 17.8967 68.8801 18.8308C67.807 19.7648 67.1409 21.0912 66.8818 22.8099H78.7606ZM91.5949 25.7802C91.5949 22.567 92.1869 19.7462 93.3711 17.3176C94.5923 14.889 96.239 13.0209 98.3114 11.7132C100.384 10.4055 102.697 9.75165 105.25 9.75165C107.433 9.75165 109.339 10.2 110.967 11.0967C112.632 11.9934 113.909 13.1703 114.797 14.6275V10.2H124.289V41.4725H114.797V37.0451C113.872 38.5022 112.577 39.6791 110.911 40.5758C109.284 41.4725 107.378 41.9209 105.194 41.9209C102.678 41.9209 100.384 41.2671 98.3114 39.9593C96.239 38.6143 94.5923 36.7275 93.3711 34.2989C92.1869 31.833 91.5949 28.9934 91.5949 25.7802ZM114.797 25.8363C114.797 23.4451 114.131 21.5582 112.799 20.1758C111.504 18.7934 109.912 18.1022 108.025 18.1022C106.138 18.1022 104.528 18.7934 103.196 20.1758C101.901 21.5209 101.253 23.389 101.253 25.7802C101.253 28.1714 101.901 30.0769 103.196 31.4967C104.528 32.8791 106.138 33.5703 108.025 33.5703C109.912 33.5703 111.504 32.8791 112.799 31.4967C114.131 30.1143 114.797 28.2274 114.797 25.8363Z" fill="white"/>
<path d="M37.3571 71.456V79.5824H32.5279C29.0863 79.5824 26.4034 78.7417 24.4791 77.0604C22.5549 75.3418 21.5927 72.5582 21.5927 68.7099V56.2681H17.8181V48.3099H21.5927V40.6879H31.0846V48.3099H37.3016V56.2681H31.0846V68.822C31.0846 69.756 31.3067 70.4285 31.7507 70.8395C32.1948 71.2506 32.935 71.456 33.9711 71.456H37.3571ZM40.757 63.8901C40.757 60.6769 41.349 57.8561 42.5333 55.4275C43.7545 52.9988 45.4012 51.1308 47.4735 49.8231C49.5459 48.5153 51.8587 47.8615 54.4121 47.8615C56.5954 47.8615 58.5012 48.3099 60.1295 49.2066C61.7947 50.1033 63.0714 51.2802 63.9595 52.7374V48.3099H73.4515V79.5824H63.9595V75.1549C63.0344 76.6121 61.7392 77.789 60.0739 78.6857C58.4457 79.5824 56.5399 80.0308 54.3566 80.0308C51.8402 80.0308 49.5459 79.3769 47.4735 78.0692C45.4012 76.7242 43.7545 74.8374 42.5333 72.4088C41.349 69.9428 40.757 67.1033 40.757 63.8901ZM63.9595 63.9461C63.9595 61.555 63.2934 59.6681 61.9612 58.2857C60.666 56.9033 59.0748 56.2121 57.1875 56.2121C55.3002 56.2121 53.6905 56.9033 52.3583 58.2857C51.063 59.6308 50.4155 61.4989 50.4155 63.8901C50.4155 66.2813 51.063 68.1868 52.3583 69.6066C53.6905 70.989 55.3002 71.6802 57.1875 71.6802C59.0748 71.6802 60.666 70.989 61.9612 69.6066C63.2934 68.2242 63.9595 66.3373 63.9595 63.9461ZM89.8104 38.1099V79.5824H80.3184V38.1099H89.8104ZM125.886 63.4417C125.886 64.3384 125.831 65.2725 125.72 66.2439H104.238C104.386 68.1868 104.997 69.6813 106.07 70.7275C107.18 71.7363 108.531 72.2406 110.122 72.2406C112.49 72.2406 114.138 71.2319 115.062 69.2143H125.165C124.646 71.2692 123.703 73.1186 122.334 74.7626C121.002 76.4066 119.318 77.6956 117.283 78.6297C115.248 79.5637 112.972 80.0308 110.455 80.0308C107.421 80.0308 104.719 79.3769 102.351 78.0692C99.9827 76.7615 98.1323 74.8934 96.8001 72.4648C95.4679 70.0362 94.8018 67.1967 94.8018 63.9461C94.8018 60.6956 95.4495 57.8561 96.7446 55.4275C98.0768 52.9988 99.9271 51.1308 102.295 49.8231C104.664 48.5153 107.384 47.8615 110.455 47.8615C113.453 47.8615 116.117 48.4967 118.448 49.767C120.78 51.0373 122.593 52.8494 123.888 55.2033C125.22 57.5571 125.886 60.3033 125.886 63.4417ZM116.172 60.9198C116.172 59.2758 115.617 57.9682 114.507 56.9967C113.397 56.0252 112.009 55.5396 110.344 55.5396C108.753 55.5396 107.402 56.0066 106.292 56.9407C105.219 57.8747 104.553 59.2011 104.294 60.9198H116.172Z" fill="white"/>
<path d="M8.32627 72.8571C12.9247 72.8571 16.6525 69.0934 16.6525 64.4506C16.6525 59.8077 12.9247 56.044 8.32627 56.044C3.7278 56.044 0 59.8077 0 64.4506C0 69.0934 3.7278 72.8571 8.32627 72.8571Z" fill="#0061FF"/>
<path d="M8.32627 72.8571C12.9247 72.8571 16.6525 69.0934 16.6525 64.4506C16.6525 59.8077 12.9247 56.044 8.32627 56.044C3.7278 56.044 0 59.8077 0 64.4506C0 69.0934 3.7278 72.8571 8.32627 72.8571Z" fill="white"/>
</svg>
