<svg width="180" height="180" viewBox="0 0 180 180" fill="none" xmlns="http://www.w3.org/2000/svg">
<g clip-path="url(#clip0_844_6393)">
<path d="M38.5601 43.0142C34.3598 38.8135 32.2529 33.5609 32.2529 27.2565C32.2529 20.952 34.3531 15.6927 38.5601 11.492C42.7604 7.29808 48.0176 5.19434 54.3248 5.19434C60.632 5.19434 65.8823 7.29808 70.0826 11.4988C74.2829 15.6995 76.3898 20.952 76.3898 27.2633C76.3898 33.5745 74.2897 38.8203 70.0826 43.021C65.8823 47.2216 60.632 49.3254 54.3248 49.3254C48.0176 49.3254 42.7672 47.2216 38.5669 43.021L38.5601 43.0142Z" fill="#FD4401"/>
<path d="M111.596 43.0141C107.396 38.8134 105.289 33.5609 105.289 27.2564C105.289 20.952 107.389 15.6926 111.596 11.4919C115.797 7.29124 121.047 5.1875 127.354 5.1875C133.661 5.1875 138.912 7.29124 143.112 11.4919C147.312 15.6926 149.419 20.9452 149.419 27.2564C149.419 33.5676 147.319 38.8134 143.112 43.0141C138.912 47.2148 133.661 49.3185 127.354 49.3185C121.047 49.3185 115.797 47.2148 111.596 43.0141Z" fill="#2668FD"/>
<path d="M104.308 171.363H76.5993V104.491C76.5993 95.4316 69.2217 88.0482 60.1572 88.0482C51.0927 88.0482 43.7151 95.4249 43.7151 104.491V171.363H16V104.491C16 80.149 35.8091 60.3467 60.1505 60.3467C84.4918 60.3467 104.301 80.149 104.301 104.491V171.363H104.308Z" fill="#FD4401"/>
<path d="M164.9 171.363H137.191V104.491C137.191 95.4316 129.814 88.0482 120.749 88.0482C111.685 88.0482 104.307 95.4249 104.307 104.491V171.363H76.5986V104.491C76.5986 80.149 96.4077 60.3467 120.749 60.3467C145.09 60.3467 164.9 80.149 164.9 104.491V171.363Z" fill="#2668FD"/>
<path d="M164.9 171.363H137.191V104.491C137.191 95.4316 129.814 88.0482 120.749 88.0482C111.685 88.0482 104.307 95.4249 104.307 104.491V171.363H76.5986V104.491C76.5986 80.149 96.4077 60.3467 120.749 60.3467C145.09 60.3467 164.9 80.149 164.9 104.491V171.363Z" fill="#2668FD"/>
<path d="M165.361 100.942C159.251 103.934 151.88 101.41 148.885 95.3024L146.799 91.0474C143.804 84.9397 146.331 77.5699 152.435 74.5703C157.787 71.9441 164.25 74.1632 166.879 79.5107L170.3 86.5006C172.922 91.8482 170.707 98.3155 165.355 100.942H165.361Z" fill="#FD4401"/>
</g>
<defs>
<clipPath id="clip0_844_6393">
<rect width="156" height="168" fill="white" transform="translate(16 4)"/>
</clipPath>
</defs>
</svg>
