<svg class="w-full h-auto" width="2979" height="1495" viewBox="0 0 2979 1495" fill="none" xmlns="http://www.w3.org/2000/svg"><defs><clipPath id="clip0_2002_14927"><rect width="2979" height="1495"></rect></clipPath><clipPath id="clip1_2002_14927" clipPathUnits="userSpaceOnUse"><path d="M1486.07 1494.94L4 4.00098H2979L1486.07 1494.94Z"></path></clipPath></defs><g clip-path="url(#clip0_2002_14927)"><g clip-path="url(#clip1_2002_14927)"><path d="M3429.72 -69.3486H-453.384V1272.28H3429.72V-69.3486Z" fill="#FDCB40"></path><path class="weight-0.1" d="M1975.71 1122.87C1958.24 1129.58 1946.19 1144.27 1942.12 1161.18C1934.11 1147.71 1920.39 1137.76 1903.69 1135.11C1885.21 1132.18 1867.41 1138.88 1855.44 1151.5C1855.24 1135.84 1848.34 1120.36 1835.2 1109.72C1820.66 1097.94 1801.9 1094.86 1785.21 1099.8C1792.88 1086.13 1794.63 1069.29 1788.59 1053.51C1781.88 1036.04 1767.18 1023.99 1750.26 1019.93C1763.74 1011.93 1773.69 998.208 1776.34 981.522C1779.28 963.048 1772.57 945.265 1759.94 933.299C1775.62 933.096 1791.1 926.202 1801.75 913.071C1813.54 898.536 1816.62 879.79 1811.67 863.105C1825.35 870.768 1842.2 872.523 1857.99 866.478C1875.47 859.777 1887.52 845.083 1891.58 828.171C1899.59 841.642 1913.32 851.592 1930.01 854.241C1948.5 857.173 1966.29 850.472 1978.26 837.85C1978.47 853.517 1985.36 868.991 1998.5 879.632C2013.04 891.416 2031.8 894.495 2048.49 889.548C2040.83 903.222 2039.07 920.066 2045.12 935.846C2051.82 953.313 2066.53 965.357 2083.45 969.421C2069.97 977.424 2060.01 991.144 2057.36 1007.83C2054.43 1026.3 2061.13 1044.09 2073.76 1056.05C2058.09 1056.26 2042.6 1063.15 2031.96 1076.28C2020.17 1090.82 2017.09 1109.56 2022.04 1126.25C2008.35 1118.58 1991.5 1116.83 1975.71 1122.87Z" fill="#FF2700"></path><g class=""><path d="M1995.17 771.979C2012.03 771.979 2025.71 752.35 2025.71 728.126C2025.71 703.901 2012.03 684.272 1995.17 684.272C1978.32 684.272 1964.65 703.901 1964.65 728.126C1964.65 752.339 1978.32 771.979 1995.17 771.979Z" fill="white"></path><path d="M2046.31 771.979C2063.16 771.979 2076.83 752.35 2076.83 728.126C2076.83 703.901 2063.16 684.272 2046.31 684.272C2029.45 684.272 2015.78 703.901 2015.78 728.126C2015.78 752.339 2029.45 771.979 2046.31 771.979Z" fill="white"></path><path d="M2087.5 758.769C2099.28 758.769 2108.82 745.05 2108.82 728.138C2108.82 711.226 2099.28 697.506 2087.5 697.506C2075.72 697.506 2066.17 711.226 2066.17 728.138C2066.17 745.05 2075.72 758.769 2087.5 758.769Z" fill="white"></path><path d="M1951.67 758.769C1963.45 758.769 1972.99 745.05 1972.99 728.138C1972.99 711.226 1963.45 697.506 1951.67 697.506C1939.89 697.506 1930.35 711.226 1930.35 728.138C1930.35 745.05 1939.9 758.769 1951.67 758.769Z" fill="white"></path></g><path class="weight-0.1" d="M1558.42 692.48C1512.53 574.186 1345.12 573.983 1298.96 692.163L1298.51 693.351C1246.7 825.93 1146.16 933.718 1017.42 994.642L769.167 1100.98C772.746 1118.96 769.167 1314.91 769.167 1314.91H2219.48C2219.48 1314.91 2219.48 1155.25 2219.48 1115.14C2219.48 1115.14 1958.37 1048.6 1839.96 994.982C1721.56 941.371 1610.05 825.59 1558.4 692.468H1558.43L1558.42 692.48Z" fill="#006CFF"></path><path class="weight-0.5" d="M1651.55 1643.4C1859.07 1643.4 2027.29 1475.27 2027.29 1267.87C2027.29 1060.47 1859.07 892.333 1651.55 892.333C1444.04 892.333 1275.8 1060.47 1275.8 1267.87C1275.8 1475.27 1444.03 1643.4 1651.55 1643.4Z" fill="#FFC4C9"></path><g class="weight-1"><path d="M1047.13 860.104H1275.32V1014.63H1213.31V964.225C1213.31 938.212 1192.2 917.134 1166.2 917.134C1140.17 917.134 1119.08 938.235 1119.08 964.225V1014.63H1047.15V860.104H1047.12H1047.13Z" fill="#FFC4C9"></path><path d="M1231.96 713.546H1084.32V861.09H1231.96V713.546Z" fill="#FF2700"></path><path d="M1242.54 1014.62H1047.05V1189.07H1242.54V1014.62Z" fill="#00D7D2"></path><path d="M996.06 714.655H1186.63L1091.35 580.458L996.06 714.655Z" fill="#573DDE"></path></g><path d="M1847.16 683.514C1846.26 681.295 1841.06 670.077 1827.01 665.957C1817.84 663.263 1809.63 664.961 1805.53 666.217L1804.51 662.923C1808.95 661.565 1817.93 659.686 1827.99 662.64C1843.53 667.213 1849.33 679.744 1850.32 682.178L1847.14 683.48L1847.17 683.514H1847.16Z" fill="#006CFF"></path><path d="M1850.34 683.514L1847.16 682.212C1848.16 679.744 1853.98 667.247 1869.5 662.674C1879.57 659.719 1888.55 661.565 1892.98 662.957L1891.96 666.251C1887.86 665.006 1879.68 663.274 1870.47 665.991C1856.46 670.111 1851.23 681.329 1850.32 683.548L1850.36 683.514H1850.34Z" fill="#006CFF"></path><path d="M1922.09 634.691C1921.64 633.638 1918.97 628.329 1911.75 626.371C1906.95 625.069 1902.69 625.884 1900.55 626.518L1899.59 623.19C1902.06 622.477 1907.04 621.514 1912.63 623.043C1921.32 625.431 1924.62 631.985 1925.22 633.298L1922.06 634.691H1922.09Z" fill="#006CFF"></path><path d="M1925.27 634.691L1922.12 633.298C1922.68 632.019 1925.96 625.431 1934.7 623.043C1940.3 621.514 1945.27 622.477 1947.74 623.19L1946.78 626.518C1944.65 625.895 1940.39 625.069 1935.57 626.371C1928.36 628.329 1925.72 633.638 1925.23 634.691H1925.26H1925.27Z" fill="#006CFF"></path></g><g class="face"><g class="weight-0.1"><g><path d="M1396.027 680.8717C1401.711 680.8717 1406.3187 676.2642 1406.3187 670.5804C1406.3187 664.89666 1401.711 660.289062 1396.027 660.289062C1390.34309 660.289062 1385.735352 664.89666 1385.735352 670.5804C1385.735352 676.2642 1390.34309 680.8717 1396.027 680.8717Z" fill="#050505"></path><path d="M1460.485 680.8717C1466.169 680.8717 1470.7767 676.2642 1470.7767 670.5804C1470.7767 664.89666 1466.169 660.289062 1460.485 660.289062C1454.8011 660.289062 1450.1934 664.89666 1450.1934 670.5804C1450.1934 676.2642 1454.8011 680.8717 1460.485 680.8717Z" fill="#050505"></path><path d="M1428.3461 725.1965C1417.3924 725.1965 1407.6725 718.6365 1403.5498 708.4956L1406.1679 707.4424C1409.8392 716.5 1418.566 722.3678 1428.3461 722.3678C1438.1262 722.3678 1446.8231 716.5 1450.5245 707.4424L1453.1425 708.4956C1449.0198 718.6365 1439.2999 725.1965 1428.3461 725.1965Z" fill="#050505"></path></g></g></g></g></svg>