<svg width="30.1" height="31.5" viewBox="0 0 43 45" fill="none" xmlns="http://www.w3.org/2000/svg">
<path d="M14.457 2.5C16.1411 2.5 17.6492 3.13401 18.7988 4.16309C19.3523 3.91731 19.9679 3.7793 20.625 3.7793L20.9727 3.78809C22.5043 3.86803 23.8751 4.47424 24.9414 5.41895C25.4507 5.17624 26.008 5.02159 26.5918 4.97461L26.7422 4.96777C26.7923 4.96676 26.8425 4.96674 26.8926 4.96875C28.5282 5.03456 30.0094 5.68603 31.1445 6.71582C31.6951 6.47309 32.3073 6.33791 32.96 6.33789L33.3076 6.34668C36.8734 6.53269 39.5713 9.56628 39.5713 13.1016V24.7471C39.5713 25.7325 39.3685 26.8232 39.0947 27.7852C38.82 28.7503 38.4196 29.7781 37.9141 30.6133C37.902 30.6332 37.8886 30.6523 37.876 30.6719L37.877 30.6729L37.875 30.6738C37.8738 30.6756 37.872 30.6792 37.8691 30.6836C37.8635 30.6925 37.8547 30.7068 37.8428 30.7256C37.8187 30.7634 37.7822 30.821 37.7354 30.8955C37.6415 31.0448 37.506 31.2629 37.3428 31.5312C37.0148 32.0704 36.5801 32.804 36.1494 33.5918C35.7144 34.3874 35.3047 35.1977 35.0107 35.8984C34.6722 36.7056 34.6378 37.0258 34.6377 36.9814V39.5381C34.6377 40.9187 33.5183 42.0379 32.1377 42.0381H29.6699C28.7232 42.0379 27.858 41.5031 27.4346 40.6562L27.2031 40.1943L26.9727 40.6562C26.5492 41.5032 25.6832 42.0381 24.7363 42.0381H14.8682C13.4875 42.0381 12.3682 40.9188 12.3682 39.5381V37.3359C12.2576 37.1698 12.0705 36.93 11.7871 36.6191C11.1567 35.9278 10.2671 35.1169 9.31152 34.3135C8.36899 33.521 7.41921 32.7825 6.7002 32.2393C6.34207 31.9687 6.04378 31.7489 5.83691 31.5977C5.73373 31.5222 5.6534 31.4636 5.59961 31.4248C5.57283 31.4055 5.5521 31.3912 5.53906 31.3818C5.53265 31.3772 5.52827 31.3732 5.52539 31.3711C5.52412 31.3702 5.523 31.3695 5.52246 31.3691H5.52148C5.50823 31.3597 5.49549 31.3496 5.48242 31.3398C4.54603 30.644 3.82671 29.6616 3.34473 28.7041C2.86249 27.746 2.5 26.5794 2.5 25.4033V16.5127C2.50007 12.4035 5.72678 8.91462 9.90137 8.89648V7.13281C9.90137 4.66054 11.8555 2.50019 14.457 2.5Z" fill="#DADADA" stroke="white" stroke-width="5" stroke-linejoin="round"/>
<mask id="path-2-outside-1_126_554" maskUnits="userSpaceOnUse" x="2" y="2" width="38" height="40" fill="black">
<rect fill="white" x="2" y="2" width="38" height="40"/>
<path fill-rule="evenodd" clip-rule="evenodd" d="M29.6703 39.5385L27.2033 34.6044L24.7363 39.5385H14.8681V36.9813C14.8681 34.9615 6.97325 29.3334 6.97325 29.3334C5.88345 28.5236 5 26.7783 5 25.4033V16.5128C5 13.6871 7.20923 11.396 9.93407 11.396V19.0712H12.4011V7.13243C12.4011 5.95428 13.3213 5 14.4574 5C16.7283 5 18.5687 6.90857 18.5687 9.26358V8.41163C18.5687 7.23349 19.4889 6.2792 20.625 6.2792C22.8959 6.2792 24.7363 8.18777 24.7363 10.5428V9.69083C24.7363 8.51269 25.6565 7.5584 26.7925 7.46703C29.0634 7.5584 30.9038 9.46697 30.9038 11.822V10.97C30.9038 9.79189 31.8241 8.83761 32.9601 8.83761C35.231 8.83761 37.0714 10.7462 37.0714 13.1012V24.7469C37.0714 26.1035 36.4861 28.1438 35.7751 29.3182C35.7751 29.3182 32.1374 34.9615 32.1374 36.9813V39.5385H29.6703ZM19.8022 19.8022H22.2693V29.6703H19.8022V19.8022ZM24.7361 19.8022H27.2031V29.6703H24.7361V19.8022ZM29.6699 19.8022H32.1369V29.6703H29.6699V19.8022Z"/>
</mask>
<path fill-rule="evenodd" clip-rule="evenodd" d="M29.6703 39.5385L27.2033 34.6044L24.7363 39.5385H14.8681V36.9813C14.8681 34.9615 6.97325 29.3334 6.97325 29.3334C5.88345 28.5236 5 26.7783 5 25.4033V16.5128C5 13.6871 7.20923 11.396 9.93407 11.396V19.0712H12.4011V7.13243C12.4011 5.95428 13.3213 5 14.4574 5C16.7283 5 18.5687 6.90857 18.5687 9.26358V8.41163C18.5687 7.23349 19.4889 6.2792 20.625 6.2792C22.8959 6.2792 24.7363 8.18777 24.7363 10.5428V9.69083C24.7363 8.51269 25.6565 7.5584 26.7925 7.46703C29.0634 7.5584 30.9038 9.46697 30.9038 11.822V10.97C30.9038 9.79189 31.8241 8.83761 32.9601 8.83761C35.231 8.83761 37.0714 10.7462 37.0714 13.1012V24.7469C37.0714 26.1035 36.4861 28.1438 35.7751 29.3182C35.7751 29.3182 32.1374 34.9615 32.1374 36.9813V39.5385H29.6703ZM19.8022 19.8022H22.2693V29.6703H19.8022V19.8022ZM24.7361 19.8022H27.2031V29.6703H24.7361V19.8022ZM29.6699 19.8022H32.1369V29.6703H29.6699V19.8022Z" fill="white"/>
<path d="M29.6703 39.5385L27.5595 40.5939C27.9592 41.3934 28.7764 41.8985 29.6703 41.8985V39.5385ZM27.2033 34.6044L29.3141 33.549C28.9144 32.7494 28.0972 32.2444 27.2033 32.2444C26.3094 32.2444 25.4922 32.7494 25.0925 33.549L27.2033 34.6044ZM24.7363 39.5385V41.8985C25.6302 41.8985 26.4473 41.3934 26.8471 40.5939L24.7363 39.5385ZM14.8681 39.5385H12.5081C12.5081 40.8419 13.5647 41.8985 14.8681 41.8985V39.5385ZM6.97325 29.3334L5.56556 31.2276C5.57806 31.2369 5.59065 31.2461 5.60333 31.2551L6.97325 29.3334ZM9.93407 11.396H12.2941C12.2941 10.0926 11.2375 9.03601 9.93407 9.03601V11.396ZM9.93407 19.0712H7.57407C7.57407 20.3746 8.63067 21.4312 9.93407 21.4312V19.0712ZM12.4011 19.0712V21.4312C13.7045 21.4312 14.7611 20.3746 14.7611 19.0712H12.4011ZM16.2087 9.26358C16.2087 10.567 17.2653 11.6236 18.5687 11.6236C19.8721 11.6236 20.9287 10.567 20.9287 9.26358H18.5687H16.2087ZM22.3763 10.5428C22.3763 11.8462 23.4329 12.9028 24.7363 12.9028C26.0397 12.9028 27.0963 11.8462 27.0963 10.5428H24.7363H22.3763ZM26.7925 7.46703L26.8874 5.10894C26.7927 5.10513 26.6978 5.10703 26.6033 5.11463L26.7925 7.46703ZM28.5438 11.822C28.5438 13.1254 29.6005 14.182 30.9038 14.182C32.2072 14.182 33.2638 13.1254 33.2638 11.822H30.9038H28.5438ZM35.7751 29.3182L37.7587 30.5969C37.7707 30.5782 37.7825 30.5594 37.794 30.5404L35.7751 29.3182ZM32.1374 39.5385V41.8985C33.4408 41.8985 34.4974 40.8419 34.4974 39.5385H32.1374ZM22.2693 19.8022H24.6293C24.6293 19.1763 24.3806 18.576 23.938 18.1334C23.4955 17.6908 22.8952 17.4422 22.2693 17.4422V19.8022ZM22.2693 29.6703V32.0303C23.5727 32.0303 24.6293 30.9737 24.6293 29.6703H22.2693ZM19.8022 29.6703H17.4422C17.4422 30.9737 18.4988 32.0303 19.8022 32.0303V29.6703ZM27.2031 19.8022H29.5631C29.5631 19.1763 29.3144 18.576 28.8719 18.1334C28.4293 17.6908 27.829 17.4422 27.2031 17.4422V19.8022ZM27.2031 29.6703V32.0303C28.5065 32.0303 29.5631 30.9737 29.5631 29.6703H27.2031ZM24.7361 29.6703H22.3761C22.3761 30.9737 23.4327 32.0303 24.7361 32.0303V29.6703ZM32.1369 19.8022H34.4969C34.4969 19.1763 34.2483 18.576 33.8057 18.1334C33.3631 17.6908 32.7628 17.4422 32.1369 17.4422V19.8022ZM32.1369 29.6703V32.0303C33.4403 32.0303 34.4969 30.9737 34.4969 29.6703H32.1369ZM29.6699 29.6703H27.3099C27.3099 30.9737 28.3665 32.0303 29.6699 32.0303V29.6703ZM29.6703 39.5385L31.7812 38.483L29.3141 33.549L27.2033 34.6044L25.0925 35.6598L27.5595 40.5939L29.6703 39.5385ZM27.2033 34.6044L25.0925 33.549L22.6254 38.483L24.7363 39.5385L26.8471 40.5939L29.3141 35.6598L27.2033 34.6044ZM24.7363 39.5385V37.1785H14.8681V39.5385V41.8985H24.7363V39.5385ZM14.8681 39.5385H17.2281V36.9813H14.8681H12.5081V39.5385H14.8681ZM14.8681 36.9813H17.2281C17.2281 36.052 16.813 35.2768 16.5331 34.8267C16.211 34.3087 15.7976 33.8038 15.3784 33.3441C14.5346 32.4188 13.4559 31.4482 12.4395 30.5936C11.4109 29.7288 10.3895 28.9356 9.62946 28.3614C9.24818 28.0733 8.92976 27.8382 8.70539 27.6741C8.59314 27.592 8.50426 27.5276 8.44263 27.4832C8.41181 27.461 8.38779 27.4437 8.37106 27.4317C8.36269 27.4257 8.35614 27.421 8.35147 27.4177C8.34914 27.416 8.34728 27.4147 8.34589 27.4137C8.34519 27.4132 8.34462 27.4128 8.34417 27.4125C8.34394 27.4123 8.34369 27.4121 8.34358 27.412C8.34336 27.4119 8.34317 27.4117 6.97325 29.3334C5.60333 31.2551 5.6032 31.255 5.6031 31.255C5.6031 31.255 5.60303 31.2549 5.60305 31.2549C5.60307 31.255 5.60322 31.2551 5.60348 31.2552C5.60401 31.2556 5.605 31.2563 5.60646 31.2574C5.60939 31.2595 5.61416 31.2629 5.62073 31.2676C5.63387 31.277 5.65418 31.2916 5.68119 31.3111C5.73521 31.3501 5.81594 31.4086 5.91957 31.4843C6.12695 31.6359 6.42532 31.8563 6.78419 32.1274C7.50447 32.6716 8.45671 33.4116 9.40192 34.2063C10.3592 35.0112 11.2542 35.8263 11.8907 36.5244C12.2116 36.8763 12.415 37.1425 12.5247 37.3189C12.6766 37.5631 12.5081 37.4057 12.5081 36.9813H14.8681ZM6.97325 29.3334L8.38093 27.4392C8.20561 27.3089 7.92515 26.9944 7.68596 26.5192C7.44708 26.0446 7.36 25.6295 7.36 25.4033H5H2.64C2.64 26.5521 2.99465 27.6971 3.46994 28.6414C3.94492 29.585 4.65109 30.5481 5.56556 31.2276L6.97325 29.3334ZM5 25.4033H7.36V16.5128H5H2.64V25.4033H5ZM5 16.5128H7.36C7.36 14.9088 8.59278 13.756 9.93407 13.756V11.396V9.03601C5.82567 9.03601 2.64 12.4653 2.64 16.5128H5ZM9.93407 11.396H7.57407V19.0712H9.93407H12.2941V11.396H9.93407ZM9.93407 19.0712V21.4312H12.4011V19.0712V16.7112H9.93407V19.0712ZM12.4011 19.0712H14.7611V7.13243H12.4011H10.0411V19.0712H12.4011ZM12.4011 7.13243H14.7611C14.7611 7.16629 14.7458 7.21717 14.702 7.26257C14.6568 7.30951 14.5687 7.36 14.4574 7.36V5V2.64C11.9377 2.64 10.0411 4.73253 10.0411 7.13243H12.4011ZM14.4574 5V7.36C15.3447 7.36 16.2087 8.13033 16.2087 9.26358H18.5687H20.9287C20.9287 5.68681 18.1118 2.64 14.4574 2.64V5ZM18.5687 9.26358H20.9287V8.41163H18.5687H16.2087V9.26358H18.5687ZM18.5687 8.41163H20.9287C20.9287 8.44549 20.9134 8.49637 20.8696 8.54177C20.8244 8.58871 20.7362 8.6392 20.625 8.6392V6.2792V3.9192C18.1053 3.9192 16.2087 6.01173 16.2087 8.41163H18.5687ZM20.625 6.2792V8.6392C21.5123 8.6392 22.3763 9.40953 22.3763 10.5428H24.7363H27.0963C27.0963 6.96601 24.2794 3.9192 20.625 3.9192V6.2792ZM24.7363 10.5428H27.0963V9.69083H24.7363H22.3763V10.5428H24.7363ZM24.7363 9.69083H27.0963C27.0963 9.70622 27.0928 9.72637 27.0849 9.74589C27.0776 9.76383 27.0687 9.77634 27.0609 9.78463C27.0478 9.79861 27.0222 9.81618 26.9817 9.81944L26.7925 7.46703L26.6033 5.11463C24.2728 5.30207 22.3763 7.25119 22.3763 9.69083H24.7363ZM26.7925 7.46703L26.6977 9.82512C27.6796 9.86463 28.5438 10.7098 28.5438 11.822H30.9038H33.2638C33.2638 8.22418 30.4473 5.25218 26.8874 5.10894L26.7925 7.46703ZM30.9038 11.822H33.2638V10.97H30.9038H28.5438V11.822H30.9038ZM30.9038 10.97H33.2638C33.2638 11.0039 33.2486 11.0548 33.2048 11.1002C33.1595 11.1471 33.0714 11.1976 32.9601 11.1976V8.83761V6.47761C30.4405 6.47761 28.5438 8.57013 28.5438 10.97H30.9038ZM32.9601 8.83761V11.1976C33.8475 11.1976 34.7114 11.9679 34.7114 13.1012H37.0714H39.4314C39.4314 9.52442 36.6146 6.47761 32.9601 6.47761V8.83761ZM37.0714 13.1012H34.7114V24.7469H37.0714H39.4314V13.1012H37.0714ZM37.0714 24.7469H34.7114C34.7114 25.1352 34.6188 25.7564 34.42 26.4548C34.2221 27.1503 33.97 27.7429 33.7562 28.0961L35.7751 29.3182L37.794 30.5404C38.2911 29.7191 38.6872 28.7043 38.9597 27.7469C39.2314 26.7925 39.4314 25.7152 39.4314 24.7469H37.0714ZM35.7751 29.3182C33.7915 28.0396 33.7914 28.0398 33.7912 28.04C33.7912 28.0401 33.791 28.0403 33.7909 28.0405C33.7906 28.0409 33.7903 28.0413 33.79 28.0419C33.7893 28.043 33.7883 28.0445 33.7872 28.0463C33.7849 28.0498 33.7817 28.0548 33.7777 28.061C33.7697 28.0736 33.7583 28.0914 33.7438 28.1142C33.7147 28.1598 33.6731 28.2254 33.6207 28.3088C33.5159 28.4755 33.3677 28.7137 33.1904 29.005C32.8371 29.5859 32.3628 30.3872 31.8855 31.2602C31.4123 32.1257 30.9149 33.1 30.5294 34.019C30.1863 34.8371 29.7774 35.9572 29.7774 36.9813H32.1374H34.4974C34.4974 36.9956 34.5431 36.6528 34.8821 35.8447C35.1787 35.1375 35.5907 34.3223 36.0269 33.5245C36.459 32.7342 36.8942 31.9985 37.2229 31.4581C37.3867 31.1888 37.5227 30.9704 37.6168 30.8206C37.6639 30.7457 37.7004 30.6881 37.7247 30.6501C37.7368 30.631 37.7458 30.6169 37.7516 30.6079C37.7544 30.6035 37.7565 30.6003 37.7577 30.5984C37.7583 30.5975 37.7586 30.5969 37.7588 30.5967C37.7589 30.5965 37.7589 30.5965 37.7589 30.5965C37.7589 30.5965 37.7588 30.5966 37.7588 30.5966C37.7587 30.5968 37.7587 30.5969 35.7751 29.3182ZM32.1374 36.9813H29.7774V39.5385H32.1374H34.4974V36.9813H32.1374ZM32.1374 39.5385V37.1785H29.6703V39.5385V41.8985H32.1374V39.5385ZM19.8022 19.8022V22.1622H22.2693V19.8022V17.4422H19.8022V19.8022ZM22.2693 19.8022H19.9093V29.6703H22.2693H24.6293V19.8022H22.2693ZM22.2693 29.6703V27.3103H19.8022V29.6703V32.0303H22.2693V29.6703ZM19.8022 29.6703H22.1622V19.8022H19.8022H17.4422V29.6703H19.8022ZM24.7361 19.8022V22.1622H27.2031V19.8022V17.4422H24.7361V19.8022ZM27.2031 19.8022H24.8431V29.6703H27.2031H29.5631V19.8022H27.2031ZM27.2031 29.6703V27.3103H24.7361V29.6703V32.0303H27.2031V29.6703ZM24.7361 29.6703H27.0961V19.8022H24.7361H22.3761V29.6703H24.7361ZM29.6699 19.8022V22.1622H32.1369V19.8022V17.4422H29.6699V19.8022ZM32.1369 19.8022H29.7769V29.6703H32.1369H34.4969V19.8022H32.1369ZM32.1369 29.6703V27.3103H29.6699V29.6703V32.0303H32.1369V29.6703ZM29.6699 29.6703H32.0299V19.8022H29.6699H27.3099V29.6703H29.6699Z" fill="black" fill-opacity="0.8" mask="url(#path-2-outside-1_126_554)"/>
</svg>
